<svg xmlns="http://www.w3.org/2000/svg" xmlns:xlink="http://www.w3.org/1999/xlink" fill="none" viewBox="0 0 451 254" xmlns:v="https://vecta.io/nano"><style><![CDATA[.B{fill:#81f1dc}.C{fill:#0c836d}.D{fill:#56403d}.E{fill:#fbb5ad}.F{fill:#fff}.G{fill:#999a1c}.H{fill:#ffb469}.I{fill:#e05e00}.J{fill:#1c5028}.K{fill:#ffb92c}.L{fill:#c67445}.M{fill:#68e1fd}.N{fill:#c24327}.O{fill:#363636}]]></style><defs><path id="A" d="M83.7 186.6s.2 6.8 2.5 7c2.4.2 2.5-7 2.5-7" class="B"/><path id="B" d="M411 195a13.6 13.6 0 0 0 .8-1.3v-.1l.1-.2.1-.2c.5-1.2.8-2.5.7-3.8a5.1 5.1 0 0 0-1.7 2v.2a8.3 8.3 0 0 0-.7 3.6v.9l.8-1.1Zm1.5-4.1v-.2.3-.1Z" class="G"/><path id="C" d="M378.3 182a48 48 0 0 1 5.5 3.1v1.2l-2 1.2-5.7-3.1v-1.5l2.2-1Z"/><path id="D" d="M379 197.1a.5.5 0 0 0-.3-.4l-1-.5-10.2-6a.4.4 0 0 0-.5.6c0 .2.2.5.5.7l2.2 1.4v-.3c-.5-.3-1.7-1-2.1-1.4l.2.1 4 2.4 2.8 1.6 1.2.7 1.1.7.9.4c.2.2.5.4.8.4a.4.4 0 0 0 .4-.2v-.2z"/><path id="E" d="M394.2 170.7c-.3-.1-1-.6-2-.2-.9.5-1.8 1.3-.8 3.7.3.2.6.2 1 0 0 0-.2-2 0-2.3l3.2 1.7a2.1 2.1 0 0 1-1.1 2l.9.8c.7 0 2.2-2.2 1.7-3.8s-3.1-2-3.1-2"/><path id="F" d="M370.4 181.2c2 0 3.6-.8 3.6-1.7 0-1-1.6-1.8-3.6-1.8s-3.6.8-3.6 1.8 1.6 1.7 3.6 1.7Z"/><path id="G" d="M233 42.6s-.6 3.6-1.8 4.5l-5 3.8-.7-.9s2.7-4.7 3.1-6.8c.5-2 4.3-.6 4.3-.6Z"/><path id="H" d="M229 37.6s-3.5-.5-4.7.4l-5 3.8.6.9s5.3-1.3 7.4-1.2 1.8-4 1.8-4z"/><path id="I" d="M226.3 40.6s-2.5-.3-3.3.3l-3.5 2.6.4.6s3.7-.9 5.1-.8c1.5 0 1.3-2.7 1.3-2.7Zm2.9 3.9s-.3 2.5-1.2 3.1l-3.4 2.6-.5-.5s1.9-3.3 2.2-4.7c.3-1.5 3-.5 3-.5Z"/><path id="J" d="M246.4 24.7s0 3.3 3.5 4.5l-2 2.4s-4.5-2.5-3.8-5.8l2.3-1.1Zm-12.6 7.7s0 5.7 5.3 7.3l-4 2.6s-5.6-2-4.6-7l3.3-2.9Zm9.5-.8a.8.8 0 1 0-1-1.3.8.8 0 0 0 1 1.3Zm-2.9 4.2a2 2 0 1 0-2.5-3.4 2 2 0 0 0 2.5 3.4Z"/><linearGradient id="K" gradientUnits="userSpaceOnUse"/></defs><path d="M0 0h451v254H0z" class="F"/><path d="M156.8 98l-5.2-14.6h2.3L158 96h-.7l4.4-12.6h1.7l4.2 12.6h-.7l4.4-12.6h2.1L168.3 98h-1.8l-4-12h.3l-4.2 12h-1.8zm22.4.2c-1.7 0-3-.5-4-1.4-1-1-1.4-2.3-1.4-4 0-1 .2-2 .6-2.8a5 5 0 0 1 1.8-2 5 5 0 0 1 2.6-.6c1 0 1.8.2 2.5.6a4 4 0 0 1 1.5 1.8c.3.7.5 1.6.5 2.6v.7h-7.9v-1.2h6.5l-.4.2c0-1-.2-1.8-.7-2.4-.4-.5-1-.8-2-.8s-1.7.3-2.2 1-.8 1.6-.8 2.7v.2c0 1.3.3 2.2 1 2.8.5.6 1.4 1 2.5 1a5 5 0 0 0 1.7-.3l1.5-.9.7 1.5a6 6 0 0 1-1.8 1c-.7.2-1.4.3-2.2.3zm12.1 0c-1 0-1.7-.2-2.4-.7-.7-.4-1.1-1-1.3-1.9h.2V98h-2V82.8h2v7h-.2c.2-.7.6-1.3 1.3-1.7a4 4 0 0 1 2.4-.7c1 0 1.7.2 2.4.6a4 4 0 0 1 1.6 2c.4.7.6 1.7.6 2.8s-.2 2-.6 3c-.4.7-1 1.3-1.6 1.7a4 4 0 0 1-2.4.7zm-.5-1.6c.9 0 1.6-.4 2.1-1 .6-.6.9-1.5.9-2.8 0-1.2-.3-2.2-.9-2.8-.5-.6-1.2-1-2.1-1-1 0-1.7.4-2.2 1-.6.6-.8 1.5-.8 2.8 0 1.2.2 2.2.8 2.8.5.6 1.3 1 2.2 1zM204 98V83.4h6.1c1.6 0 2.8.3 3.6 1 1 .7 1.3 1.6 1.3 2.8 0 .9-.2 1.6-.8 2.3a4 4 0 0 1-2.2 1.2v-.3c1 .1 2 .5 2.5 1.1.6.6 1 1.4 1 2.5 0 1.3-.5 2.3-1.4 3s-2.1 1-3.7 1H204zm2.1-1.7h4a4 4 0 0 0 2.4-.5c.5-.4.8-1 .8-2 0-.8-.3-1.4-.8-1.8a4 4 0 0 0-2.3-.6h-4v5zm0-6.5h3.7c1 0 1.8-.2 2.4-.6.5-.4.7-1 .7-1.8 0-.7-.2-1.3-.7-1.7-.6-.4-1.4-.6-2.4-.6H206v4.7zM218 98v-7.8a20.4 20.4 0 0 0-.1-2.6h2l.2 2.7h-.3a4 4 0 0 1 .7-1.7 3 3 0 0 1 1.2-1 3.8 3.8 0 0 1 2.5 0v1.8a2 2 0 0 0-.6-.2h-.6c-.7 0-1.2.1-1.6.4a2.41 2.41 0 0 0-1 1l-.3 1.5v6H218zm7.8 0V87.6h2.1V98h-2zm-.1-12.6v-2.2h2.4v2.2h-2.4zm9.9 12.8c-1 0-2-.2-2.8-.7a4 4 0 0 1-1.8-1.8 7 7 0 0 1-.6-3c0-1 .2-2 .6-2.9.5-.8 1-1.4 1.8-1.8a6 6 0 0 1 2.8-.6l2 .3a4 4 0 0 1 1.5 1l-.7 1.5a3.8 3.8 0 0 0-2.7-1.1 3 3 0 0 0-2.3.9c-.6.6-.9 1.5-.9 2.7 0 1.3.3 2.2.9 2.8a3 3 0 0 0 2.3 1c.5 0 1 0 1.4-.2a3 3 0 0 0 1.3-.9l.7 1.5c-.4.4-1 .7-1.6 1-.6.2-1.3.3-2 .3zm5.7-.2V82.8h2.1V92l4.6-4.5h2.6l-5.5 5.5v-1l6 6h-2.7l-5-4.9V98h-2zm14.4.2l-2.4-.3c-.7-.3-1.3-.6-1.8-1l.7-1.4a5.8 5.8 0 0 0 3.6 1.2 3 3 0 0 0 1.7-.4c.4-.3.6-.7.6-1.2 0-.3-.2-.6-.4-.8s-.6-.4-1.2-.5l-2-.4c-.9-.2-1.5-.5-2-1-.4-.5-.7-1-.7-1.8 0-.6.2-1.2.5-1.7.4-.4.9-.8 1.5-1.1a6.8 6.8 0 0 1 4.4 0c.6.1 1.2.5 1.6.9l-.7 1.4a4.5 4.5 0 0 0-3-1.1c-.8 0-1.4 0-1.8.3-.3.3-.5.7-.5 1.2 0 .3 0 .6.3.9.2.2.6.4 1.1.5l2 .4c1 .2 1.6.5 2.1 1 .5.4.7 1 .7 1.7s-.2 1.2-.5 1.7c-.4.5-.9.9-1.5 1.1-.7.3-1.4.4-2.3.4zm12.5-.2V83.4h6.2c1.5 0 2.7.4 3.6 1.1a4 4 0 0 1 1.2 3.2 4 4 0 0 1-1.2 3 5 5 0 0 1-3.6 1.2h-4V98h-2.2zm2.1-7.8h3.8c1 0 1.8-.2 2.3-.7.5-.4.7-1 .7-1.8s-.2-1.5-.7-2c-.5-.4-1.3-.6-2.3-.6h-3.8v5.1zm11.1 7.8v-7.8a20.4 20.4 0 0 0-.1-2.6h2l.2 2.7h-.3a4 4 0 0 1 .7-1.7 3 3 0 0 1 1.2-1 3.8 3.8 0 0 1 2.5 0v1.8a2 2 0 0 0-.6-.2h-.6c-.7 0-1.2.1-1.6.4a2.41 2.41 0 0 0-1 1l-.3 1.5v6h-2.1zm12.2.2c-1 0-2-.2-2.7-.7a4 4 0 0 1-1.8-1.8c-.4-.8-.6-1.8-.6-3 0-1 .2-2 .6-2.8s1-1.4 1.8-1.9c.7-.4 1.6-.6 2.7-.6 1 0 1.9.2 2.7.6.7.5 1.3 1 1.7 2 .5.7.7 1.7.7 2.8s-.2 2-.7 2.9c-.4.8-1 1.4-1.7 1.8a5 5 0 0 1-2.7.7zm0-1.6c.9 0 1.6-.4 2.1-1 .6-.6.8-1.6.8-2.8 0-1.3-.2-2.2-.8-2.8-.5-.6-1.2-1-2.1-1-1 0-1.7.4-2.2 1s-.8 1.5-.8 2.8c0 1.2.3 2.2.8 2.8s1.2 1 2.2 1z" class="C"/><path fill="#f05d55" d="M193.6 117c-.9 0-1.6-.1-2.2-.4-.6-.4-1.1-.8-1.4-1.5-.4-.6-.5-1.3-.5-2.1a3.8 3.8 0 0 1 1.9-3.6c.6-.4 1.3-.5 2.2-.5.5 0 1 0 1.5.2.4.1.8.4 1.1.7l-.5 1.4-1-.6a3 3 0 0 0-1-.2c-.8 0-1.4.2-1.8.7-.4.4-.6 1-.6 1.9 0 .8.2 1.4.6 1.9.4.4 1 .6 1.7.6a3 3 0 0 0 2-.7l.6 1.4c-.3.3-.7.5-1.1.6l-1.5.3zm6 0c-.6 0-1 0-1.5-.3a2 2 0 0 1-1-1 3 3 0 0 1-.4-1.6c0-.6 0-1.2.3-1.6s.6-.8 1-1a3 3 0 0 1 1.6-.4c.7 0 1.2.1 1.6.4.5.2.8.6 1 1 .3.4.5 1 .5 1.6s-.2 1.1-.4 1.6c-.3.4-.6.8-1 1a3 3 0 0 1-1.7.4zm0-1.2c.4 0 .7-.2 1-.4.2-.3.3-.7.3-1.3s0-1-.3-1.3-.6-.4-1-.4c-.3 0-.7.1-.9.4s-.3.7-.3 1.3 0 1 .3 1.3a1.53 1.53 0 0 0 1 .4zm4.2 1.2v-4.3a12.2 12.2 0 0 0-.1-1.5h1.6l.1 1h-.1a2 2 0 0 1 1.9-1c.4 0 .8 0 1 .2.4.2.6.5.7 1h-.2l.8-1c.4-.2.8-.3 1.3-.3.6 0 1 .2 1.4.6.3.4.5 1 .5 1.8v3.4H211v-3.4c0-.4 0-.6-.2-.8l-.6-.3a1 1 0 0 0-.8.4c-.2.2-.3.6-.3 1v3.1h-1.7v-3.4l-.2-.8a1 1 0 0 0-.7-.3 1 1 0 0 0-.8.4l-.2 1v3.1h-1.7zm10.2 0v-5.8h1.7v5.7H214zm0-6.7v-1.6h1.8v1.6H214zm3.1 6.7v-4.3a12.2 12.2 0 0 0 0-1.5h1.6l.1 1h-.1c.2-.3.4-.6.8-.8.3-.2.7-.3 1.2-.3.7 0 1.2.2 1.5.6s.5 1 .5 1.8v3.4H221v-3.3c0-.4 0-.7-.2-1l-.7-.2c-.4 0-.7.2-1 .4-.1.2-.3.5-.3 1v3.1h-1.7zm9.7 2.5c-.6 0-1 0-1.5-.2l-1.1-.5.3-1.2.7.3.7.2h.8c.5 0 .8 0 1-.3.3-.2.5-.6.5-1v-1.2c0 .4-.3.7-.7.9-.3.2-.7.3-1.2.3s-1-.1-1.3-.3c-.4-.3-.7-.6-.9-1l-.3-1.5c0-.6 0-1.1.3-1.6.2-.4.5-.7.9-1 .4-.2.8-.3 1.3-.3s.9.1 1.2.3a1.27 1.27 0 0 1 .7.9v-1h1.7a12.3 12.3 0 0 0 0 1.4v4c0 .8-.3 1.5-.8 2-.6.5-1.3.8-2.3.8zm0-4c.4 0 .8-.1 1-.4s.3-.6.3-1.1 0-1-.3-1.2c-.2-.3-.6-.4-1-.4s-.7.1-1 .4c-.2.3-.3.7-.3 1.2s.1.8.4 1.1c.2.3.5.4 1 .4zm10.6 1.5c-.6 0-1.2 0-1.8-.2a3 3 0 0 1-1.4-.6l.5-1.4a4.8 4.8 0 0 0 2.7.8c.6 0 1 0 1.2-.2s.3-.4.3-.7c0-.2 0-.4-.2-.5a2 2 0 0 0-.9-.3l-1.3-.3c-.7-.1-1.3-.4-1.6-.8a2 2 0 0 1-.6-1.4c0-.5.2-1 .4-1.3a4 4 0 0 1 1.2-1l1.7-.2c.6 0 1.1 0 1.6.2s.9.4 1.2.7l-.5 1.3c-.3-.3-.7-.5-1-.6a4 4 0 0 0-1.3-.2 2 2 0 0 0-1.2.3 1 1 0 0 0-.3.7c0 .2 0 .4.2.5l.8.4 1.3.2c.8.2 1.3.4 1.7.8.4.3.6.8.6 1.4 0 .5-.2 1-.5 1.3-.2.4-.6.7-1 .9a5.23 5.23 0 0 1-1.8.3zm7.2 0c-.7 0-1.2 0-1.6-.3a2 2 0 0 1-1-1 3 3 0 0 1-.4-1.6c0-.6 0-1.2.3-1.6s.6-.8 1-1a3 3 0 0 1 1.7-.4c.6 0 1 .1 1.5.4.5.2.8.6 1 1 .3.4.5 1 .5 1.6s-.2 1.1-.4 1.6c-.3.4-.6.8-1 1a3 3 0 0 1-1.6.4zm0-1.2c.3 0 .7-.2.9-.4.2-.3.3-.7.3-1.3s0-1-.3-1.3c-.2-.3-.6-.4-1-.4-.3 0-.7.1-.9.4s-.3.7-.3 1.3 0 1 .3 1.3a1.53 1.53 0 0 0 1 .4zm6.8 1.2c-.6 0-1.2 0-1.6-.3a2 2 0 0 1-1-1 3 3 0 0 1-.4-1.6c0-.6 0-1.2.3-1.6s.6-.8 1-1a3 3 0 0 1 1.7-.4 3 3 0 0 1 1.6.4 2.41 2.41 0 0 1 1 1c.2.4.4 1 .4 1.6s-.2 1.1-.4 1.6a2.41 2.41 0 0 1-1 1 3 3 0 0 1-1.6.4zm0-1.2c.4 0 .7-.2.9-.4.2-.3.3-.7.3-1.3s0-1-.3-1.3c-.2-.3-.5-.4-1-.4-.3 0-.6.1-.9.4-.2.3-.3.7-.3 1.3s.1 1 .3 1.3c.3.2.6.4 1 .4zm4.1 1.2v-4.3a12.2 12.2 0 0 0-.1-1.5h1.6l.1 1c.1-.3.4-.6.7-.8l1.2-.3c.7 0 1.2.2 1.5.6.4.4.5 1 .5 1.8v3.4h-1.7v-3.3c0-.4 0-.7-.2-1l-.7-.2c-.4 0-.7.2-.9.4s-.3.5-.3 1v3.1h-1.7z"/><path fill="#2075af" d="m61.4 209.5-29-17.2c-1-.5-1.7-1.3-.8-1.9l29-16.8c.5-.3 1.1-.4 1.6-.2l30.4 17.7c1 .5 1 2 .1 2.6l-27.5 15.8a3.8 3.8 0 0 1-3.8 0Z"/><path fill="url(#L)" d="m66.3 191.2-15.2 9-4-2.4 15-9.1 4.2 2.5Z" style="mix-blend-mode:multiply"/><path fill="url(#M)" d="m67.5 205.6-5 3.2-9.3-5.9 8.2-5.8 6.1 8.5Z" style="mix-blend-mode:multiply"/><path fill="url(#L)" d="m60.1 190-15.2 9-4-2.5 15-9 4.2 2.5Z" style="mix-blend-mode:multiply"/><path fill="#34323d" d="m58 191.4 4.9 1.8s.2.2 0 .5l-.4.4-4.2 2.4-.7.2-.9-.2-3.8-2.3 5.2-2.8Z"/><path fill="#414cd8" d="m58.2 191.2 4.5 1.9s.4.2.3.4l-.4.4-4.2 2.4-.7.2-.9-.2-3.7-2.1 5-3Z"/><path fill="#5f66fc" d="M47.3 197.5a.4.4 0 0 1-.5 0l-.1-.5v-18.4a1.1 1.1 0 0 1 .4-.8l1.4-.9 20.3-11.8h.3a.4.4 0 0 1 .4 0l.1.4V184a1.1 1.1 0 0 1-.3.8l-22 12.6Z"/><path d="M47 194.7V179c0-.5.1-.8.5-1L69 165.4h.3a.3.3 0 0 1 .2.2V182L47 194.7Z" class="B"/><path d="M73.3 168.1v2.8a.7.7 0 0 1-.4.7l-9.6 5.5a.8.8 0 0 1-.7 0 .8.8 0 0 1-.4-.6v-2.7a.7.7 0 0 1 .3-.7l9.6-5.6a.7.7 0 0 1 1 .3l.2.3Z" class="C"/><path fill="#ffb3a6" d="M70.5 175.9v2.7a.7.7 0 0 1-.3.7l-9.6 5.6a.8.8 0 0 1-.8 0 .8.8 0 0 1-.3-.7l-.1-2.7a.7.7 0 0 1 .4-.7l9.6-5.6a.7.7 0 0 1 1 .3l.1.4Z"/><path fill="#ffc745" d="m44.9 187.5 6.7-3.6a.8.8 0 0 0 .4-.8v-12.3a.8.8 0 0 0-1.2-.7l-6.7 4a.8.8 0 0 0-.4.6v12.1a.8.8 0 0 0 1.2.7Z"/><path fill="url(#N)" d="M87.5 192.7 72 202l-2.5-2.3 15.3-8.8 2.7 2Z" style="mix-blend-mode:multiply"/><use xlink:href="#A"/><use xlink:href="#A"/><g fill="#311e69"><path d="M86.2 187.9c1.4 0 2.5-.6 2.5-1.3s-1-1.3-2.5-1.3c-1.3 0-2.5.6-2.5 1.3s1.2 1.3 2.5 1.3z"/><path d="M85.6 187.5c-.5-2.8-1.3-5.4-2.4-8 0-.2-.4 0-.3.2 1.1 2.5 1.9 5.2 2.3 7.9 0 .2.4 0 .4-.1Zm1.4.4c-.2-3.3-.5-6.6-1-10 0-.2-.3-.2-.3 0 .5 3.4.8 6.7 1 10h.3Z"/></g><path fill="#c3ea75" d="M82.5 178.9c-.5-.1-.9 0-1.3.1-.3.1-.8.5-.7.9 0 .3.8.3 1 .2a1.6 1.6 0 0 0 1-1 .2.2 0 0 0 0-.2Zm.6-.4c0-.5-.1-1-.4-1.3-.2-.3-.7-.5-1-.3-.3.2-.2.7 0 1 .2.4.7.6 1 .9h.2l.1-.1a.2.2 0 0 0 .1-.2Zm-.5-.9-.3-.3.3.3Zm1.4.2c-.6-.3-.6.7-.7 1v.1h.2v.1h.2l.5-.6c0-.2 0-.5-.2-.6Zm2.3-2.1c-.2-.4-.6-.7-1-.5-.4.1-.3.7-.3 1.1.1.4.3 1 .8 1.1h.3c.2-.6.3-1.2.2-1.7Zm-.4 1v-.1.2Zm1.7.3c-.4.2-.9.4-1 .8a.2.2 0 0 0 0 .2c0 .4.8.2 1 .1.4 0 .8-.2.8-.7 0-.5-.5-.4-.8-.3Zm.5.6v-.1Zm-2.7-.1c-.2-.2-.8-.9-1-.5a.5.5 0 0 0 0 .6c.2.2.5.3.7.3h.1l.1-.1a.1.1 0 0 0 0-.3Zm-.7-.2.1.1h-.1Z"/><g fill="#e27623"><path d="m63.4 197.4-3.5 2.2v.9l3.6-2.5"/><path d="m63.4 196 1.9 5.2-.3.2-.2-.1-2.3-5.5m-2.5-.7-.8 3.3.5 6.3.2.1.3-.2-.2-6.3.7-3.2"/></g><path d="M63.9 194.5v1c-.3.5-1-.4-1-.4" class="H"/><path fill="#ca6b00" d="m60.3 190.9.3 2.5-.7.4-.3-2.7"/><path fill="#e27623" d="m56.2 193-.2 3.6-.1 5.1.3.2.3-.2.3-5 .1-3.7"/><path d="M56.7 193.5c-.2 0-.7-.2-.8-.4-.7-1-.6-2.4.5-3.2l1.6-1 1.3-.9.2-.1a.6.6 0 0 1 .7.2" class="H"/><path fill="#fcbd4c" d="M56.6 193.4c-.3 0-.5-.4-.6-.6-.3-.7-.5-2 .3-2.4v-.1l1.5-1 1-.7.6-.4c.2-.2.4-.3.7-.2.2.1.3.4.3.7.2.6.2 1.2 0 1.8 0 .3-.3.7-.7.9l-1 .7-2 1.3Z"/><g class="H"><path d="m56.6 196.2-.5.4c-.3.4 0 .9.4 1.1.8.7 2.1 1.2 3.2.8 1-.3 1.8-.8 2.6-1.4.7-.4 1.5-1 1.6-1.9a1.2 1.2 0 0 0-.4-1c-1.9-1.9-4.2.2-5.8 1.3l-1.1.7Z"/><path d="M56 196.4v.7c.1.3.3.5.6.7.2.1 0-1 0-1"/></g><path fill="#fcbd4c" d="M56.6 195.8h-.1c-.2 0-.3.2-.4.4-.3.4 0 .8.3 1 1 .7 2.2 1.2 3.3.8a9 9 0 0 0 2.6-1.3c.6-.5 1.5-1 1.6-2a1.2 1.2 0 0 0-.4-1c-1.9-1.9-4.2.2-5.8 1.3l-1.1.8Z"/><path d="m67.7 204.9-.7-.4a6 6 0 0 1-1.2-1l-.3-.6-.5.2s-.4-.4-.8-.3c0 0-.3.3-.3 1.2v.5c.2.3.4.4.6.5.3.2 1 .7 1.5.8.5 0 1 0 1.5-.2a.5.5 0 0 0 .3-.4v-.3Z" class="I"/><path fill="#ffc019" d="M65.1 203s-.5-.3-.9-.2c-.4.2-.3 1.1-.3 1.1s0 .5.7.8c.6.2.6.5 1.4.7s1.6 0 1.8-.3c.1-.3-.4-.5-.4-.5l-1-.6-.6-.8c-.1-.2-.2-.3-.4-.3-.1 0-.2 0-.3.2z"/><path d="M66.7 204.2a2 2 0 0 0-.3 0v-.3H66v-.2h-.3v-.2h0l-.1.2h-.5v.1h.4v.3c-.1 0 0 0 0 0h.3a.7.7 0 0 0 0 .2h-.1.4a10 10 0 0 1 0 .3c.2 0 .3-.2.5-.3v-.1zm-1-.2v-.2h.3v.1h-.3zm.2.2l.1-.2h.3v.2a2 2 0 0 0-.4 0zm.4.2v-.1h.2l-.2.1zm-.3 1l-.8-.4c-.3 0-1-.9-1.2-1l-.3-.5-.5.2s-.4-.5-.8-.3c0 0-.3.2-.2 1.2v.5c0 .2.3.4.5.5.4.1 1 .6 1.5.7l1.5-.1.2-.2.1-.3v-.3z" class="I"/><path fill="#ffc019" d="M63.3 203.6s-.5-.4-.9-.2-.2 1-.2 1 0 .6.6.9c.7.2.6.5 1.4.7s1.7-.1 1.8-.4c.1-.2-.4-.4-.4-.4l-1-.6-.6-.8c-.1-.2-.2-.3-.4-.3l-.3.1z"/><path d="M65 204.8h-.4v-.4h-.3v-.2H64l.1-.2s0-.1 0 0l-.2.1-.5.1v.1h.5l-.1.2v.1h.3a.8.8 0 0 0 0 .2H64h.4a12.7 12.7 0 0 1 0 .3l.5-.3h.1v-.1Zm-1.1-.2v-.3h.3v.2h-.3Zm.3.2v-.2h.3v.2a2 2 0 0 0-.3 0Zm.3.2v-.1h.2l-.2.1Z" class="I"/><g class="B"><path d="M61.4 193c.2.3 3.7 3.2 4.3 4.2s0 5.8 0 5.8-1 .6-1.8.1c0 0-.3-4-.6-4.2-.2-.3-3.3-2.4-3.6-2.9-.4-.4-.2-2.5-.2-2.5"/><path d="M60.2 193.2c.1.3 3.3 3.8 3.9 4.7.6 1 0 5.9 0 5.9s-1 .5-1.8 0c0 0-.3-3.9-.6-4.2a30 30 0 0 1-3.7-2.8c-.8-1.5-.2-3.6-.2-3.6"/></g><path d="m61.5 191.1.1-1.8c0-1.3-.8-2.1-2-2.2a8 8 0 0 0-1.8 1.5c-.5.7-.3 3.3-.3 3.3.2.7.2 1.2.2 1.6 1 .9 2.6.3 3.7-.5.2-.6.1-1.2.1-1.9Z" class="C"/><path d="M59.3 185.9h-.1v.1h.1v-.1Zm1.1.5a1.1 1.1 0 0 1-1.1.3c-.1 0-.2.2 0 .2a1.3 1.3 0 0 0 1.2-.4s0-.1 0 0Z" class="J"/><g class="K"><path d="M60.9 185.4s0 1.9-.5 2-1 0-1.2-.3c-.1-.2-.6-1.4-.4-1.6.1-.2 1.8-.4 2 0z"/><path d="M59.1 186.8v1s.3.1 1.1-.2v-.5"/></g><g class="J"><path d="M61.1 184.8h-.3c0-.2-.1-.4-.3-.5a.8.8 0 0 0-.8 0v.1a.7.7 0 0 0-.6-.1.6.6 0 0 0-.5.4v.2a.5.5 0 0 0-.5.4.5.5 0 0 0 .2.5.5.5 0 0 0 0 .7h.3v.4c.1.2.4.2.7.3v-.4l-.3-.2v-.5h.3l.1.1v-.2c.2-.3.5-.3.8-.4.4.2 1 .4 1.2-.2a.5.5 0 0 0-.3-.6Z"/><path d="M59.5 186v.7h1.3l-.3.7c-.2.2-.7 0-.8 0l-.3-.6v-.8h.1Z"/></g><path d="m65 192 1.2.4 1 .7v.2H67a.3.3 0 0 1-.3.2s-.8-.5-.9-.4c0 0 .4.2.3.3-.1.2-.5 0-.6-.1l-.8-.6" class="K"/><path d="m61.5 188.3 1.1 2.4 2.7 1.3s0 .8-.7 1.1c0 0-2.3-.3-3.1-1.3" class="C"/><path d="M64.7 189.1s-3.5-.2-3.7 0c-.3 0-.3.4-.3.9.1.5 1.8 2.6 1.8 2.6" class="B"/><path fill="#cc6c6d" d="M65.7 190.2s-.4-1.6-2-1c-1.4.7-1.5 2.6-1.4 3 0 .4.5.9 1.2 1"/><path fill="#f9847f" d="M65.5 191.9c.5-1 .2-2.2-.5-2.5-.8-.3-1.7.2-2.2 1.3-.5 1-.2 2.2.5 2.5.8.3 1.8-.3 2.2-1.3Z"/><path d="m62.6 191.4 1.6.4.3-.7-1.4-1-.5 1.3Z" class="F"/><path fill="#f7d600" d="M64.6 191.6v-.5c-.3-.1-.5 0-.6.2l.1.5c.2 0 .4 0 .5-.2Z"/><path d="M61.4 194.8v-5.6a.2.2 0 0 0-.2-.2h-.4l-.1.2v5.5a.4.4 0 0 0 .2.3h.3a.3.3 0 0 0 .2-.2Z" class="B"/><path fill="#f7d600" d="m67.5 189.3-.7.7a.3.3 0 0 0 0 .3l.2.1h.2l.7-.8a.3.3 0 0 0 0-.3l-.2-.1h-.2Zm1.5 1.9h-1.6a.3.3 0 0 0 .2.5h1.5a.3.3 0 0 0 0-.4H69Zm-1.3 2-.6-.6c-.3-.2-.7.1-.4.4l.6.6c.3.2.7-.2.4-.4Z"/><path d="M61.6 192.6a.2.2 0 0 0 0-.3l-.2-.1-.3-.2s.2-.3 0-.4c0-.2-.1 0-.2 0l-.1.3-.3.4a7.8 7.8 0 0 0-1 .3.2.2 0 0 0 0 .2h.1a.2.2 0 0 0 .1.2.2.2 0 0 0 .2.2h1.5c.2 0 .2-.1.1-.2a.2.2 0 0 0 .2-.2.2.2 0 0 0 0-.2h-.1Z" class="K"/><path d="M57.6 189c-.4.5-.5 1.3-.5 2 0 .6-.3 1.5-.2 2.2.1.5.5 1 1 1.3.7.6 2.7-1 2.7-1l-.2-1.5-2 .8c.2 0 .4-.9.5-1l.5-1.3c.1-.8-.2-2-1.3-1.8-.2 0-.4.1-.5.3Z" class="C"/><path d="M64.3 198.2c-.3-.7-.8-1.2-1.4-1.7a34 34 0 0 0-.1 0c.6.6 1.2 1.2 1.4 2a150 150 0 0 1 0-.3Z" class="J"/><path d="M58 179.5c.5-1.9 0-3.7-1.2-4-1.2-.2-2.5 1.1-3 3-.4 2 .2 3.7 1.4 4 1.1.3 2.4-1 2.9-3Z" class="F"/><path fill="#ffd6a9" d="m384.8 173.9-26 15.1a1.7 1.7 0 0 0 0 3l31.8 17.8a2.6 2.6 0 0 0 2.6 0l24.4-13.2a2 2 0 0 0 .8-2.7 2 2 0 0 0-.7-.8L384.8 174Z"/><path fill="url(#O)" d="m366.8 184.4-3.2 1.9s.2 2.7 3.5 2.3l6-3.2"/><g fill="#f3a71c"><path d="M370.4 186c2 0 3.6-.9 3.6-1.8 0-1-1.6-1.8-3.6-1.8s-3.6.8-3.6 1.8 1.6 1.7 3.6 1.7Z"/><path d="M374 179.4v4.8s-2.7 2.5-7.2 0v-4.8"/><path d="M367.4 181.2s-.6-1-1.2-.4c-.5.5 0 2.3 1.6 2.5v.7s-2-.3-2.3-2.1c-.3-1.9 1-2.1 1.7-1.6"/></g><path d="m387.6 185.8-3 1.5a.7.7 0 0 0-.1 1.3l7.3 4.3a.7.7 0 0 0 1-.3l1.7-2.7" class="D"/><path fill="url(#P)" d="m380.6 195.2-12.1-6.4-1.9 1.2 19.8 10.8 2.7-1.8"/><path fill="url(#Q)" d="m391 201.2-2.8 1.8s1.9 1.8 4 2.7l2.7-1.8"/><path d="M390.8 200v1.4l4.1 2.5 5-3v-1.2" class="B"/><path fill="#e54c3c" d="M390.8 200v1.4l4.1 2.5 5-3v-1.2"/><path fill="#f5604b" d="m400 199.7-4.3-2.5-5 2.8 4.3 2.6 5-2.9Z"/><path d="M396 200.6c-.2 0-.3-.2-.4-.4l.3-.6.5.3" class="L"/><path d="M396 199.8s-.2.8 0 .8h.5v-.8" class="D"/><path d="m396.7 198.9-.8.2s-.1.7 0 .8l.4.2v.7h.1l.1-.7s.2 0 .2-.2v-1Zm1.5 5.2-.4-.5.4-.7c.2 0 .4.2.6.4" class="L"/><path d="M398.2 203.1v1h.7l.1-1" class="D"/><path d="m399.1 202-1 .2v1l.5.3v.9h.2l.1-1 .3-.1V202Z" class="L"/><path d="m404.4 178.7-24.6-14.2a1.1 1.1 0 0 0-1.7 1v14.7a1 1 0 0 0 .5.8l26.2 15.2a.6.6 0 0 0 .9-.5V181a2.6 2.6 0 0 0-1.3-2.3Z" class="M"/><path d="M379.8 165.6l23.8 13.7a1.7 1.7 0 0 1 .9 1.5v11a.6.6 0 0 1-1 .6l-24.3-14a.6.6 0 0 1-.3-.5V166a.6.6 0 0 1 .9-.5z" class="F"/><use xlink:href="#C" class="B"/><use xlink:href="#C" fill="#f1a317"/><path fill="#974c26" d="m374.9 185-6.5 3.8a.4.4 0 0 0-.2.3.4.4 0 0 0 .2.4l18 10.3a1.4 1.4 0 0 0 1.4 0l6-3.4.1-.2a.5.5 0 0 0-.1-.7l-18.1-10.4a.8.8 0 0 0-.8 0Z"/><use xlink:href="#D" class="B"/><use xlink:href="#D" class="G"/><path d="M389.8 186.5c.3 0 .5-.4.4-.7 0-.3-.3-.5-.6-.5s-.5.4-.4.7c0 .3.3.5.6.5Z" class="C"/><path fill="#a8a93d" d="m389.8 173.4 7 4 .1.2v.2l-.2 6.3a.5.5 0 0 1-.2.4h-.4l-6.8-3.9-.1-.2v-6.6a.4.4 0 0 1 .1-.4h.5Z"/><path d="M392.3 174.5v-.2h-.7a1 1 0 0 0-.3.5c0 .1 0 .3.2.3 0 .1 0 .3.2.3l.2.2.1-.1.2.2c.2 0 .2-.2.2-.4l-.1-.8Z" class="E"/><path d="M391.5 174.7v.4-.3h0zm.3.2v.5-.5zm.2-.1v.7-.7z" class="D"/><path d="M392.3 174.3c.2.2.3.4.3.7l-.3-.1v-.6Zm2.7 1.4h-.3c-.1.2-.6.4-.8.5-.1 0-.4.2-.4.4h.3v.2h.3c.1.1.3 0 .4 0 0 .1.1.2.2.1.2-.1.7-.7.8-1-.3 0-.3 0-.5-.2Z" class="E"/><path d="m394.8 176.5-.3.3c.2 0 .2-.2.3-.3Zm-.2-.1Zm-.3-.1-.5.3.6-.3Z" class="D"/><path d="M394.7 175.8s-.2-.2-.7 0l.4.3m6.4 10.3h-.1v-.2s0-.2-.2-.2l-.1-.1h-.1l-.2.1h-.2v.6s-.2-.3-.3-.2v.3l.3.4v.2l.6.3c0-.2 0-.4.2-.6v-.6Z" class="E"/><path d="M400.1 186Zm.3 0Zm.2.4v.4-.4Z" class="D"/><path d="M394.3 186.4a5.3 5.3 0 0 1-.1-.2v-.2l-.1-.7h-.1l-.1-.1h-.2c-.1-.3-.2-.6-.5-.6a.1.1 0 0 0 0 .1 10.6 10.6 0 0 0 0 .4.1.1 0 0 0-.1 0 .2.2 0 0 0 0 .2h-.4v.2h-.1v.4l.6.7.4.4.6-.3v-.2Z" class="E"/><path fill="#f3a71c" d="M398.7 192.4c-1.2-2-2.3 0-2.3 0-.4.5-.8 1.2-1 2a19 19 0 0 0-.1 4.7c.5.2 1.5.1 2 0v-3.6h.1v7c.9.1 1.7 0 2.5-.3 0 0-.1-8-1.2-9.8Z"/><g fill="#f5604b"><path d="M394.3 186.2c-.4 0-.6.3-1 .5.2.4 1.4 3.4 3 4v-2.1s-.6 0-2-2.4Zm5.3 1a2.6 2.6 0 0 1-1.2 1.8l.3 2c.9-.6 1.9-2.8 2-3.4a1.5 1.5 0 0 0-1-.4Z"/><path d="m396 190.9.3 1.8s1.4.5 2.5 0v-1.8"/></g><path d="M399.5 190.4l-.1-.3-.4-.3v-.7c0-.3-.1-.4-.3-.5l-.2-.4a3 3 0 0 1-.2-.6 1.27 1.27 0 0 0-.7-.9 1.2 1.2 0 0 0-1.2.3c-.3.3-.2.7-.2 1.1v.1c0 .4-.4.4-.5.7v.1l.3.6c.3.4-.4.6-.4 1a.8.8 0 0 0 .4.7 3 3 0 0 0 2 .3c.6-.1 1.7-.6 1.5-1.2zm-2.8-.7zm.6 5.8l-1.6-.3 1.6 1.2v-.9zm-3.8-10c-.1-.3-.3-.5-.3-.8h-.1c0 .3.2.6.3.8h0zm-.3.1a3 3 0 0 1-.1-.3h-.1a3 3 0 0 0 .2.4zm-.2.2l-.2-.3.1.4h0zm1-.2c0 .1 0 0 0 0z" class="D"/><path d="M378.7 173.2a.7.7 0 0 0-.2-.6.2.2 0 0 0-.2 0h-.2c-.2.4.2.7.5.7v-.1Z" class="E"/><path d="m378.4 178.6-.6-.4.5 1.3v-1Z" class="C"/><path d="m384.6 191-1.8 1 1.3.8 1.9-1-1.4-.9Zm-2-1.2-1.8 1 1.7 1 1.8-1-1.7-1Zm-7.3-4.3-1.9 1.1 1.7 1 1.8-1.1-1.6-1Zm3.9 2.3-1.8 1.1 1.3.8 1.9-1-1.4-.9Zm-2-1.2-1.8 1.1 1.7 1 1.8-1-1.7-1Zm9.1 5.4-1.9 1 1.3.8c.4-.3 1.5-1 1.9-1.1l-1.3-.8Zm-5.4-3.2-1.9 1 1.5.9 1.8-1-1.4-1Zm7 4L386 194l1.7 1 1.9-1-1.7-1Zm2 1.2-1.9 1.1 3.1 1.8 1.9-1-3.1-1.9Zm-16.7-7-1.9 1 2.4 1.4 1.9-1.1-2.4-1.4Zm4.7 2.6-1.9 1.1 1.4.8 1.8-1-1.3-.9Zm3.3 2-1.8 1.1 1.7 1 1.9-1-1.8-1Zm-1.7-1-1.8 1 1.4 1 1.9-1.2-1.5-.8Zm3.8 2.2-1.9 1 1.4.9 1.8-1.1-1.3-.8Zm1.7.9-2 1.1 1.4.8 1.8-1.1-1.3-.8Zm-9.1-5.2-1.9 1 1.8 1 1.8-1-1.7-1Zm10.6 6.2-1.8 1 1.7 1 1.8-1-1.7-1Zm.2 2.3 2.3 1.3 1.9-1-2.4-1.5-1.8 1.1Zm-1.4-.3-1.4.9 1.6.9 1.4-.8-1.6-1Zm.5 2 1.4.8 1.4-.8-1.4-.8-1.4.8Zm-14.9-10.4-1.4.8 1.6 1 1.4-.8-1.6-1Zm1.9 1.2-1.4.8 1.7 1 1.4-.8-1.7-1Zm2 1.2-1.3.8 10.1 5.9 1.4-.8-10.2-6Z" class="F"/><path fill="#e2e2e2" d="M381.7 173.6c1 0 1.7-1.3 1.6-2.9 0-1.5-.8-2.8-1.8-2.7-.9 0-1.6 1.3-1.6 2.8 0 1.6.9 2.8 1.8 2.8Z"/><path fill="#e35541" d="M383 170.5c.1-1.5-.6-2.7-1.5-2.8-1 0-1.8 1-2 2.5-.1 1.4.6 2.6 1.5 2.7 1 0 1.8-1 2-2.4Z"/><path d="M381.9 170c0-.3-.2-.7-.6-.7s-.7.2-.8.7c0 .4.3.7.7.8.3 0 .7-.3.7-.7zm-2.2 1.7s.5-1 1.2-.8c.7.1 1.1.5 1.4 1.5a1.4 1.4 0 0 1-1.6.5 1.7 1.7 0 0 1-1-1.2z" class="F"/><g class="E"><path d="M383.5 171.1a.2.2 0 0 0 0-.2v-.2a.1.1 0 0 0-.1 0c-.2 0-.3.2-.4.3l-.2.3v-.4c0-.2-.2-.2-.2 0v.6h-.1a5 5 0 0 1-2.2 1.3.2.2 0 0 0 0 .4.2.2 0 0 0 .2.2.2.2 0 0 0 .1.1l-.1.1c-.2 0-.1.5 0 .4 1-.4 1.7-1 2.2-1.7l.2-.2c.1 0 .6-.6.5-.8 0 0 .1-.1 0-.2Zm-3.4-2.3c-.2.1-.4.6-.4.7h.2v-.1l.2-.6Z"/><path d="M380.1 169.2h-.3l-.3.3v.2a3.9 3.9 0 0 1-.5.7l-.6.8c-.2.1 0 .3.1.2h.3v-.1h.1a.1.1 0 0 0 .1 0l.1-.1h.1v.1c.2-.1.3-.6.5-.8v-.5l.1-.4.2-.1.1-.2Z"/></g><path d="M381 172.5c-.8.2-1 .1-1.3.1-.4 0-.8-.5-.8-.5s-.1-1.2-.8-.3c-.6.7-.8 2.8-.9 3.7.3.2.7.4 1 .4h1.1l.4-1.8c.6 0 1.2-.2 1.7-.5l-.4-1.1Z" class="M"/><path d="M379.2 171s.6 1 0 1.3c-.5.3-.9-.2-1-.3a.8.8 0 0 1 1-1Z" class="E"/><g class="D"><path d="M379.3 170.9a1 1 0 0 0-1-.1l-.6.3h-.5l-.2.2a.4.4 0 0 0 .2.5h.4c0 .3-.2.3-.3.5v.8c.3.2.8.3 1.2.1.4 0 .8-.3 1.1-.6l-.3-.2v-.4c0-.2 0-.2-.2-.3-.2 0-.2-.1-.2-.2v-.3h.4v-.4Z"/><path d="m378.9 171.3.5-.2s0-.6-1-.4c-1.2.2-.7 1.5-.7 1.5"/></g><use xlink:href="#E" class="B"/><use xlink:href="#E" class="C"/><path fill="#009245" d="M395.2 170.6c-.2.2-.6.1-.9 0-.3 0-.7-.2-.6-.6h-.1c0 .4.3.6.6.7.4 0 .8.2 1 0 .1-.1 0-.2 0-.1Z"/><path d="M393.5 169.7s0 2 .7 2.1c.8.2 1.2-.7 1.2-.7s.2-1.8-.6-2c-.8 0-1.3.4-1.3.6Z" class="E"/><path d="M394 171a5.4 5.4 0 0 1 .1-.5h-.1a5.6 5.6 0 0 0 0 .6h0zm.4.1l-.1.2h-.2s-.1 0 0 0a.4.4 0 0 0 .4-.1s0-.1 0 0zm-.1-.3v.1zm-.6-.1z" class="D"/><path d="M394.9 170.9s.2-.8.4-.5c.2.2-.4.8-.4.8" class="E"/><g class="C"><path d="M395 169s.8 0 1 .6c.2.5-.3 1.7-.7 1.8l.5-1v-.6l-.7-.9Z"/><path d="M396 169.8c0-.4-.3-.6-.7-.8l.1-.2h-.2l-.2-.2h-.1v.4c-.4-.1-.7 0-1 .1-.2 0-.3.2-.4.3h-.2l-.3.3v.3l.2.2h.3l.3-.1.1.3h.6c0 .2.2.3.4.3v.1h.3c.2.2.1.5 0 .7a2 2 0 0 0 .8-1.6Zm-1-1Z"/></g><path fill="#fdc49a" d="m398.9 179.3 4.6 2.7a.3.3 0 0 1 0 .5h-.3l-4.6-2.7a.3.3 0 0 1-.2-.2.3.3 0 0 1 .2-.3h.3Zm0 1.5 4.6 2.7a.3.3 0 0 1-.1.5h-.2l-4.6-2.7-.1-.1v-.4a.3.3 0 0 1 .4 0Zm0 1.4 4.6 2.7a.3.3 0 0 1-.1.6h-.2l-4.6-2.8a.3.3 0 0 1-.2-.2.3.3 0 0 1 .3-.3h.2Z"/><path fill="#faedd4" d="m398.9 183.7 4.6 2.7a.3.3 0 0 1 0 .5h-.3l-4.6-2.7a.3.3 0 0 1-.2-.2.3.3 0 0 1 .2-.3h.3Z"/><g fill="#e35541"><path d="M387.3 174.3v4.6l-3.6-2v-4.7l3.6 2Z"/><path d="M384 176.9v1.1l1-.8-1-.3Z"/></g><path d="M385 174.7l-.7.5v.1l.6 1s.2 0 .2-.2l-.7-.8v.1l.8-.5-.1-.2zm.6.5l.7 1v-.2l-.8.4.1.2.8-.4v-.1h0l-.6-1c0-.1-.3 0-.2 0z" class="F"/><path d="M403.5 180.4c.1 0 .2-.1.2-.3 0-.1 0-.3-.2-.3s-.3.2-.3.3c0 .2.1.3.3.3Z" class="C"/><path fill="#659fe4" d="m402.7 180 .2-.3c0-.2-.1-.3-.2-.3-.2 0-.3.1-.3.3 0 .1.1.3.3.3Z"/><path fill="#c5e9ff" d="M401.8 179.6c.2 0 .3-.2.3-.3 0-.2-.1-.3-.3-.3-.1 0-.2.1-.2.3 0 .1 0 .3.2.3Z"/><path d="m377.7 185.1-.3-.1-.1-.4v-.6h-.5l-.2.8c0 .1.5.7.7.7l.9-.2-.5-.2Zm3.2-1.6h-.8v-.5h-.7l-.1 1.2c0 .2.3.3.3.2h.2v-.4c.1-.1.2 0 .4 0h.3c.2 0 .4-.2.5-.3 0-.1.1-.2-.1-.2Z" class="E"/><g class="D"><path d="M381 183.5h-.8.6v.4c-.3.3-.7 0-1 0l-.4-.3v.9l.3.1h.3v-.5h.5c.1 0 .8-.3.7-.5Zm-4 1.3.4.8s1-.2.8-.4l-.7-.1.3.1-.3.2-.5-.7-.3-.1-.4.7h.3l.1.3.3-.4v.3s.4.3.5 0l-.2-.2"/><path d="M376.3 185.3v.1l.4.2v-.3h-.2"/></g><path d="M379 183.3a1.9 1.9 0 0 0 1.6-.4v-2.8c0-1.6-.2-3.1-1.3-4.4l-2-.3c-.9 1.6-1 8.8-1 8.8s1 .6 1.8.3l.3-6s.5.6.6 1v3.8Z" class="G"/><use xlink:href="#F" class="B"/><use xlink:href="#F" fill="#663535"/><path fill="url(#R)" d="m408 196.5-2.8 1.7s.9 1.6 3 2.5l3.4-1.8"/><path d="M410.5 199c1.5 0 2.7-.8 2.7-1.8s-1.2-2-2.7-2-2.7 1-2.7 2 1.2 1.8 2.7 1.8z" class="M"/><path fill="#974c26" d="M410.5 196.9c1 0 2-.4 2-.9 0-.4-1-.8-2-.8-1.1 0-2 .4-2 .8 0 .5.9.9 2 .9Z"/><path d="M410.4 194.7V193l-.1-.2v-.2a8.9 8.9 0 0 0-1.5-3.6 5.1 5.1 0 0 0-.4 2.7v.1l.1.3a8.2 8.2 0 0 0 1.4 3.1l.4.8.1-1.4Zm-1-4.2v-.2.2Z" class="G"/><use xlink:href="#B"/><path d="m411 195.9.7-.4h.1l.1-.1h.1l.2-.2c.6-.4 1.1-1 1.5-1.8a3.2 3.2 0 0 0-1.6.6l-.2.1a5.2 5.2 0 0 0-1.4 1.7l-.2.4.8-.3Zm2.1-1.8h.1v.1Zm-2.7.6V193l-.1-.2v-.2a8.9 8.9 0 0 0-1.5-3.6 5.1 5.1 0 0 0-.4 2.7v.1l.1.3a8.2 8.2 0 0 0 1.4 3.1l.4.8.1-1.4Zm-1-4.2v-.2.2Z" class="G"/><use xlink:href="#B"/><path d="m411 195.9.7-.4h.1l.1-.1h.1l.2-.2c.6-.4 1.1-1 1.5-1.8a3.2 3.2 0 0 0-1.6.6l-.2.1a5.2 5.2 0 0 0-1.4 1.7l-.2.4.8-.3Zm2.1-1.8h.1v.1Z" class="G"/><path fill="#53595a" d="M14.8 234.6l-2.8-8h1.2l2.3 7h-.4l2.4-7h1l2.2 7h-.4l2.4-7H24l-2.8 8h-1l-2.3-6.5h.3l-2.4 6.5h-1zm10.2 0v-5.7h1.2v5.7h-1.1zm0-6.9v-1.2h1.3v1.2H25zm5 7a3 3 0 0 1-1.3-.3l-.8-1c-.2-.5-.3-1-.3-1.6 0-.7 0-1.2.3-1.6a2.3 2.3 0 0 1 2.2-1.4c.5 0 .9.1 1.2.4a1.59 1.59 0 0 1 .8 1H32v-4h1v8.4h-1v-1.3h.1a2 2 0 0 1-2 1.4zm.3-.9c.5 0 1-.2 1.2-.5.3-.4.5-.9.5-1.5 0-.7-.2-1.2-.5-1.6-.3-.3-.7-.5-1.2-.5s-.9.2-1.2.5c-.2.4-.4.9-.4 1.6 0 .6.2 1.1.4 1.5.3.3.7.5 1.2.5zm7 3.3L36 237c-.4-.2-.8-.3-1-.6l.2-.8a3.7 3.7 0 0 0 2.2.6c.5 0 1-.1 1.2-.4.3-.3.4-.7.4-1.2v-1.5h.1c-.1.4-.4.8-.7 1-.4.2-.8.4-1.3.4s-1-.1-1.4-.4c-.4-.2-.6-.5-.9-1-.2-.4-.3-.9-.3-1.5l.3-1.5c.3-.4.5-.7 1-1 .3-.2.8-.3 1.3-.3a2 2 0 0 1 2 1.4l-.1-.1.1-1.2h1.1a11 11 0 0 0 0 1.4v4.2c0 .8-.3 1.5-.8 2-.4.4-1 .6-2 .6zm0-3.5c.4 0 .8-.2 1.1-.5.3-.4.5-.8.5-1.5 0-.6-.2-1-.5-1.4-.3-.3-.7-.5-1.2-.5s-.9.2-1.2.5-.4.8-.4 1.4c0 .7.1 1.1.4 1.5.3.3.7.5 1.2.5zm7 1.1a3 3 0 0 1-2.2-.8c-.5-.5-.7-1.2-.7-2.1 0-.6 0-1.1.3-1.6a2 2 0 0 1 1-1c.4-.3.8-.4 1.4-.4.5 0 1 .1 1.3.3.4.3.7.6.9 1l.2 1.5v.3h-4.3v-.6h3.6l-.2.1c0-.6-.2-1-.4-1.3-.3-.3-.6-.5-1.1-.5s-1 .2-1.2.6c-.3.3-.5.8-.5 1.5 0 .8.2 1.3.5 1.6.4.3.8.5 1.4.5l1-.1.8-.5.4.8-1 .5-1.2.2zm5.7 0c-.6 0-1-.2-1.4-.5-.3-.3-.4-.8-.4-1.5v-3H47v-.8h1v-1.5l1.2-.3v1.8H51v.9h-1.6v2.8c0 .4 0 .7.2.9s.4.3.7.3h.4l.3-.2v1h-.4l-.5.1zm3.9 0c-.5 0-1 0-1.3-.2l-1-.5.3-.8 1 .5 1 .2 1-.2c.2-.2.3-.4.3-.7l-.2-.4c-.2-.2-.4-.2-.7-.3l-1-.2c-.6-.1-1-.3-1.2-.6-.2-.2-.3-.5-.3-1 0-.3 0-.6.2-.8l.8-.7a3.7 3.7 0 0 1 2.4 0l1 .5-.5.8-.7-.5-1-.2c-.4 0-.7.1-.9.3-.2.1-.3.3-.3.6 0 .2 0 .4.2.5l.6.3 1 .2c.6 0 1 .3 1.2.5.3.2.4.6.4 1 0 .3 0 .6-.3.9-.2.3-.4.5-.8.6l-1.2.2zm8.2-.1l-2.1-5.7h1.2l1.6 4.8h-.3l1.8-4.8h.8l1.8 4.8h-.3l1.7-4.8h1.1l-2.2 5.7h-1l-1.8-4.8h.5l-1.7 4.8h-1zm8.4 0v-5.7h1.1v5.7h-1.1zm-.1-6.9v-1.2h1.3v1.2h-1.3zm5.1 7a2 2 0 0 1-1.4-.5c-.3-.3-.5-.8-.5-1.5v-3h-1.1v-.8h1.1v-1.5l1.2-.3v1.8h1.5v.9h-1.5v2.8c0 .4 0 .7.2.9.1.2.3.3.6.3h.4l.3-.2v1H76l-.4.1zm1.9-.1v-8.3h1.1v3.8h-.1c.1-.4.4-.7.8-1 .3-.2.8-.3 1.2-.3.7 0 1.2.2 1.5.6.4.3.5.9.5 1.7v3.5h-1.1v-3.5c0-.5 0-.8-.3-1-.2-.3-.5-.4-.9-.4-.5 0-.9.2-1.2.5-.2.3-.4.7-.4 1.2v3.2h-1.1zm9.6 0v-5.7h1l.1 1.2H88c.1-.4.4-.7.7-1a2 2 0 0 1 1.2-.3c.4 0 .8.1 1.1.3.3.3.5.6.6 1h-.1l.7-1c.4-.2.8-.3 1.3-.3.6 0 1 .2 1.4.6.3.3.5.9.5 1.7v3.5h-1.2v-3.5c0-.5 0-.8-.2-1a1 1 0 0 0-.8-.4c-.5 0-.8.2-1 .5-.3.3-.5.7-.5 1.2v3.2h-1.1v-3.5c0-.5 0-.8-.3-1-.1-.3-.4-.4-.8-.4s-.8.2-1 .5c-.3.3-.4.7-.4 1.2v3.2H87zm12.1.1c-.7 0-1.2-.2-1.5-.5-.4-.4-.5-1-.5-1.8V229h1.1v3.5c0 .5.1.8.3 1 .2.3.5.4.9.4.5 0 .8-.2 1.1-.5s.4-.7.4-1.2V229h1.2v5.7h-1.2v-1.2h.2a2 2 0 0 1-.8 1c-.3.2-.7.3-1.2.3zm4.6-.1v-8.3h1.2v8.3h-1.2zm5.1.1c-.7 0-1.1-.2-1.4-.5-.4-.3-.5-.8-.5-1.5v-3h-1.1v-.8h1v-1.5l1.2-.3v1.8h1.6v.9H108v2.8c0 .4 0 .7.2.9s.4.3.7.3h.4l.3-.2v1h-.4l-.4.1zm1.8-.1v-5.7h1.2v5.7h-1.2zm0-6.9v-1.2h1.3v1.2h-1.3zM22.8 253v-8h1l.2 1.3h-.2c.2-.4.4-.8.8-1 .3-.3.8-.4 1.3-.4s1 .1 1.3.4c.4.2.7.5.9 1 .2.4.3 1 .3 1.6s-.1 1-.3 1.5a2.3 2.3 0 0 1-2.2 1.4c-.5 0-1-.1-1.3-.4-.4-.2-.6-.5-.8-1h.2v3.7h-1.2zm2.8-3.2c.5 0 .9-.2 1.2-.5.3-.4.4-.9.4-1.5 0-.7-.1-1.2-.4-1.6-.3-.3-.7-.5-1.2-.5s-1 .2-1.2.5c-.3.4-.5.9-.5 1.6 0 .6.2 1.1.5 1.5.3.3.7.5 1.2.5zm4.1.8v-4.3a10.8 10.8 0 0 0 0-1.4h1l.2 1.5h-.2c0-.4.2-.7.4-.9l.6-.5a2 2 0 0 1 1.4-.1v1l-.4-.1h-.3c-.3 0-.6 0-.8.2-.3.2-.5.3-.6.6l-.2.8v3.2h-1.1zm6.8.1a3 3 0 0 1-2.1-.8c-.6-.5-.8-1.2-.8-2.1 0-.6 0-1.1.3-1.6a2.41 2.41 0 0 1 1-1c.4-.3.9-.4 1.4-.4s1 .1 1.3.3c.4.3.7.6.9 1s.3.9.3 1.5v.3h-4.3v-.6H38l-.2.1c0-.6-.1-1-.4-1.3s-.6-.5-1-.5c-.6 0-1 .2-1.3.6-.3.3-.4.8-.4 1.5 0 .8.1 1.3.4 1.6.4.3.8.5 1.4.5l1-.1.8-.5.4.8-1 .5-1.2.2zm5.5 0c-.5 0-.9 0-1.3-.2l-1-.5.4-.8c.2.2.5.4.9.5l1 .2 1-.2c.2-.2.3-.4.3-.7 0-.2 0-.3-.2-.4-.2-.2-.4-.2-.7-.3l-1-.2c-.5-.1-.9-.3-1.1-.6-.3-.2-.4-.5-.4-1 0-.3 0-.6.2-.8l.8-.7a3.7 3.7 0 0 1 2.4 0l1 .5-.4.8-.8-.5-1-.2c-.3 0-.7.1-.9.3-.2.1-.3.3-.3.6l.2.5.6.3 1.1.2c.5 0 .9.3 1.2.5.2.2.3.6.3 1 0 .3 0 .6-.3.9-.1.3-.4.5-.8.6l-1.2.2zm6.3 0a3 3 0 0 1-2.2-.8c-.5-.5-.7-1.2-.7-2.1 0-.6 0-1.1.3-1.6a2 2 0 0 1 1-1c.4-.3.8-.4 1.4-.4.5 0 1 .1 1.3.3.4.3.7.6.9 1l.2 1.5v.3h-4.3v-.6h3.6l-.2.1c0-.6-.2-1-.4-1.3-.3-.3-.6-.5-1.1-.5s-1 .2-1.2.6c-.3.3-.4.8-.4 1.5 0 .8.1 1.3.4 1.6.4.3.8.5 1.4.5l1-.1.8-.5.4.8-1 .5-1.2.2zm5.7 0c-.6 0-1-.2-1.3-.5-.4-.3-.5-.8-.5-1.5v-3H51v-.8h1v-1.5l1.2-.3v1.8H55v.9h-1.6v2.8c0 .4 0 .7.2.9s.4.3.7.3h.4l.3-.2v1h-.4l-.4.1zm3.9 0c-.5 0-1 0-1.3-.2l-1-.5.3-.8 1 .5 1 .2 1-.2c.2-.2.3-.4.3-.7l-.2-.4c-.2-.2-.4-.2-.7-.3l-1-.2c-.6-.1-1-.3-1.2-.6-.2-.2-.3-.5-.3-1 0-.3 0-.6.2-.8l.8-.7a3.7 3.7 0 0 1 2.4 0l1 .5-.5.8-.7-.5-1-.2c-.4 0-.7.1-.9.3-.2.1-.3.3-.3.6 0 .2 0 .4.2.5l.6.3 1 .2c.6 0 1 .3 1.2.5.3.2.4.6.4 1 0 .3 0 .6-.3.9-.2.3-.4.5-.8.6l-1.2.2zm6.7-.1v-8.3h1.1v8.3h-1.1zm5 .1c-.5 0-1-.1-1.3-.3l-1-1-.2-1.6c0-.7 0-1.2.3-1.6a2.3 2.3 0 0 1 2.2-1.4 2 2 0 0 1 2 1.4h-.1v-1.3h1.2v5.7h-1.2v-1.3c0 .5-.3.8-.7 1-.3.3-.7.4-1.2.4zm.3-.9c.4 0 .8-.2 1.1-.5.3-.4.5-.9.5-1.5 0-.7-.2-1.2-.5-1.6-.3-.3-.7-.5-1.1-.5-.5 0-1 .2-1.2.5-.3.4-.5.9-.5 1.6 0 .6.2 1.1.5 1.5.3.3.6.5 1.2.5zm4.1 3.4l-.2-1 .9-.2.6-.4.4-.7.2-.7v.5l-2.4-5.8h1.2l1.9 4.8h-.3l2-4.8h1l-2.5 6.1a5 5 0 0 1-.6 1l-.6.6-.7.4-.8.2zm8.6-2.5a3 3 0 0 1-1.5-.3l-1-1c-.1-.5-.3-1-.3-1.6 0-.7.2-1.2.4-1.6a1.65 1.65 0 0 1 1-1c.4-.3.9-.4 1.4-.4.6 0 1 .1 1.5.4.4.2.7.5 1 1 .2.4.3 1 .3 1.6s-.1 1-.3 1.5c-.3.5-.6.8-1 1a3 3 0 0 1-1.5.4zm0-.9c.5 0 1-.2 1.2-.5.3-.4.4-.9.4-1.5 0-.7-.1-1.2-.4-1.6-.3-.3-.7-.5-1.2-.5s-.9.2-1.2.5c-.3.4-.4.9-.4 1.6 0 .6.1 1.1.4 1.5.3.3.7.5 1.2.5zm6.2.9c-.7 0-1.2-.2-1.6-.5a3 3 0 0 1-.5-1.8V245h1.1v3.5c0 .5.1.8.3 1 .2.3.5.4 1 .4.4 0 .7-.2 1-.5s.4-.7.4-1.2V245h1.2v5.7h-1.1v-1.2h.1a2 2 0 0 1-.7 1l-1.2.3zm6.8 0a2 2 0 0 1-1.4-.5c-.3-.3-.5-.8-.5-1.5v-3h-1.1v-.8h1.1v-1.5l1.1-.3v1.8h1.6v.9h-1.6v2.8c0 .4.1.7.3.9.1.2.3.3.6.3h.4l.3-.2v1H96l-.4.1zm3.8 0c-.5 0-.9 0-1.3-.2l-1-.5.4-.8c.2.2.5.4.9.5l1 .2 1-.2c.2-.2.3-.4.3-.7 0-.2 0-.3-.2-.4-.2-.2-.4-.2-.7-.3l-1-.2c-.5-.1-.9-.3-1.1-.6-.3-.2-.4-.5-.4-1 0-.3 0-.6.3-.8.1-.3.4-.5.7-.7a3.7 3.7 0 0 1 2.4 0l1 .5-.4.8-.8-.5-1-.2c-.3 0-.7.1-.9.3-.2.1-.3.3-.3.6l.2.5.6.3 1.1.2c.5 0 .9.3 1.2.5.2.2.3.6.3 1 0 .3 0 .6-.3.9-.1.3-.4.5-.8.6l-1.2.2z"/><path fill="#ff666d" d="m226.5 210 23.7-14.1c.8-.4 1.4-1.1.7-1.6L227 180.5c-.3-.2-.9-.3-1.2-.1l-25 14.5c-.7.4-.9 1.7-.1 2.1l22.6 13a3.2 3.2 0 0 0 3.2 0Z"/><path d="m223 188 3.5 1.7a.8.8 0 0 1 .5.7.8.8 0 0 1-.4.7l-8.2 4.8c-.2.1-.4.2-.6.1a.8.8 0 0 1-.5-.3l-2-3.1" class="D"/><path d="M204.3 180l27.5-15.9a1.2 1.2 0 0 1 2 1.1v16.6a1 1 0 0 1-.6.9l-29.4 17a.7.7 0 0 1-1-.6v-16.5a3 3 0 0 1 1.5-2.5z" class="B"/><path d="m231.8 165.4-26.7 15.4a1.9 1.9 0 0 0-.9 1.6v12.4a.7.7 0 0 0 1 .6l27.2-15.7a.7.7 0 0 0 .4-.5v-13.3a.6.6 0 0 0-.3-.5.6.6 0 0 0-.7 0Z" class="F"/><path fill="#ab643c" d="M221.3 188.2c0-.3-.1-.7-.4-.7-.4 0-.7.2-.7.5-.1.4 0 .7.4.8.3 0 .6-.2.7-.6Z"/><path d="M221.8 185.9a8.3 8.3 0 0 1 3-4.2c1.8-1.2 3.7-1.2 4.1-2.7.5-1.7 1.8-4 3.9-4.7v4.7a1 1 0 0 1-.5 1l-10.5 5.9Zm-17.6 1.1s3.2-1.3 3.8-3.8c.4-1.6 1.2-3.5 2.8-4.2l1.4-.7 1-1.1 1-1.6-9.5 5.5a.9.9 0 0 0-.5.7v5.3Z" class="C"/><path fill="#ffb3a6" d="M232.8 173.9v-.2c-1.4.2-2.2 1.5-2.7 2.7-.8 1.7-1.7 3.4-3.6 4-.8.3-1.6.3-2.3.8l-1.4 1.5c-.8 1.2-1.2 2.7-2.1 3.8h.1l.3-.2h.2l1.1-2.2a8 8 0 0 1 1.4-2.1c.9-.8 1.8-1 2.8-1.3a5.3 5.3 0 0 0 3-2.5c.8-1.4 1.3-4 3.2-4.1v-.2zm-16.8.6l-.4.2a5.8 5.8 0 0 1-2.5 3.1c-1.2.7-2.7 1-3.8 2s-1.5 2.7-2.2 4a8 8 0 0 1-3 3.6v.4a7.5 7.5 0 0 0 3-3.1c.8-1.6 1.2-3.9 2.8-5 1.2-.8 2.8-1 4-2 1-.8 1.8-2 2.1-3.2zm-8.7 17.3a.7.7 0 0 0 1 .7l5.5-3.1.3-.3a.7.7 0 0 0 0-.7.7.7 0 0 0-.6-.3h-.3l-5.6 3.1a.7.7 0 0 0-.3.6z"/><path fill="#b3b3b3" d="m214.9 183-7.7 4.4-.1.1a.2.2 0 0 0 .1.2h.2l7.7-4.4a.2.2 0 0 0-.2-.3Zm0 1.1-7.7 4.4-.1.2v.1h.3l7.7-4.3v-.2a.2.2 0 0 0 0-.2h-.2Zm0 1.2-7.7 4.4-.1.1a.2.2 0 0 0 .1.2h.2l7.7-4.4a.2.2 0 0 0 0-.3h-.2Z"/><path fill="#c5e0fe" d="M223.8 179c.8-1.7.5-3.4-.6-4-1.2-.6-2.8.2-3.6 1.9-.8 1.6-.5 3.4.7 4 1.1.5 2.7-.3 3.5-2Z"/><path fill="#f9aa43" d="m221.7 177.9 1.6-2.8s-1-.9-2.6.4l1 2.4Z"/><path fill="#23af95" d="m221.7 177.9-2.2-.8s.3-.7 1.2-1.6l1 2.4Z"/><path fill="#e6e6e6" d="m217.2 175.6 1.9-1.2c.3-.1 0-.5-.3-.4l-1.8 1.2c-.3.1 0 .5.2.4Zm7.5-4.4 1.9-1.2c.2-.2 0-.6-.3-.4l-1.8 1.1c-.3.2 0 .6.2.5Zm4.1-2.2 1.9-1.1c.2-.2 0-.6-.3-.4l-1.8 1.1c-.3.2 0 .6.2.4Zm-8 4.5 1.8-1.2c.3-.1 0-.5-.2-.4l-1.9 1.2c-.3.1 0 .5.3.4Z"/><path fill="#b24f28" d="M225 208v-4l3.3-1.9v3.8l-3.4 2Z"/><path fill="#c96336" d="m225 204.1-3.4-1.9v4l3.3 1.8v-4Z"/><path fill="#db7d58" d="m221.6 202.2 3.3-2 3.4 2-3.4 2-3.3-2Z"/><path fill="#fdedcb" d="m222.9 201.4 3.4 2v2l1-.6v-2l-3.4-2-1 .6Z"/><path fill="#eead97" d="M232.2 180.3s.5 0 .6-.2v-.3l.4-.3c-.1-.2-.5-.6-.7-.6-.3 0-1 .8-1 .8"/><path d="M231.6 201.1v.1h-.2c-.1 0-1.7-.6-2 .3v.3c.8.5 1.7.8 2.6 1 .3 0 .6 0 1-.2l-.2-1.7-1.2.2Zm3.8-.8s-1.5-1-1.7-.3c-.2.4 1.5 1.8 2.1 1.9.7 0 .8-.6.8-.6v-1" class="N"/><path d="M232.5 186.5s-1.4 3.2-1.4 14.5c0 0 .3.8 2.4.2l.8-10 .4 9.2s1 .8 2.5-.1c0 0-.3-12.5-1.2-14.7" class="C"/><g class="N"><path d="M236.1 186c.4-1.6 1.1-5.6.3-6.2-.7-.5-2.3 0-3.5 1-1 .6-.6 4.6-.5 6a5 5 0 0 0 3.7-.8Z"/><path d="M236.4 179.8s.5.3.7 1.2c.2.8.5 3 0 3.7-.5.6-1.4-.3-1.5-.4m-2.1-3.9-2 1 .9-.8s-.1-1.3-1-1c0 0-3.3 2.5-1.5 4 .8.7 3.5-.4 3.5-.4"/></g><g fill="#eead97"><path d="M233 177.6s0 2 .6 2a1 1 0 0 0 1.1-.5"/><path d="M233.9 179.4v1s.5.2 1.2-.3v-.8"/></g><path d="M233.2 178s-.7-.8-.3-1.4c.5-.6 1-.3 1-.3s.1-.2.6-.3c.6 0 .8.5 1 .6.2.2.6.6.6.9s-.5 2.1-1 2.3c-.6 0-1.3.3-2-1.8z" class="N"/><path fill="url(#S)" d="M238.5 196.8c.5.2 1 .4 1.3.7.7.5 1.7.8 2.3 1.3l4.8-2.7-6.5-1-2.4 1.4c.2 0 .3.2.5.3Z"/><g class="B"><path d="M243.5 198.1v-3.9l-3.5-2v4l3.5 2Zm0-3.9 3.4-2v4l-3.4 2v-4Z"/><path d="m246.9 192.2-3.4-2-3.5 2 3.5 2 3.4-2Zm-6.9 0-1.3-2.2 3.6-2 1.2 2.2-3.5 2Z"/></g><path d="M243.5 194.2l3.4-2v4l-3.4 2v-4zm3.5-2l-3.5-2.1-3.5 2 3.5 2 3.4-2z" fill="#606060"/><path d="m246.9 192.2.9-2-3.8 2.1-.5 2 3.4-2Z" class="B"/><path fill="#53595a" d="M168.6 231v-7.9h5.2v1h-4v2.5h3.8v1h-3.9v2.5h4.1v1h-5.2zm5.8 0l2.5-3.1v.5l-2.4-3h1.4l1.7 2.2h-.4l1.7-2.2h1.4l-2.5 3v-.5l2.6 3.2H179l-1.8-2.4h.4l-1.9 2.4h-1.3zm9.2.2a3 3 0 0 1-1.5-.4c-.4-.2-.7-.6-1-1-.2-.5-.3-1-.3-1.6s.1-1.1.4-1.6c.2-.4.5-.7 1-1a3 3 0 0 1 1.4-.3c.4 0 .8 0 1.1.2.4 0 .6.3.9.5l-.4.8a2 2 0 0 0-1.5-.6c-.5 0-1 .2-1.3.5s-.4.9-.4 1.5c0 .7.1 1.2.4 1.5.4.4.8.6 1.3.6.3 0 .5 0 .8-.2l.7-.4.4.8-1 .5-1 .2zm3.2-.2v-8.2h1.1v8.3h-1.1zm4.8.2c-.7 0-1.2-.2-1.5-.6-.4-.4-.5-1-.5-1.7v-3.5h1.1v3.5c0 .4.1.8.3 1a1.2 1.2 0 0 0 1.9-.1c.4-.3.5-.7.5-1.2v-3.2h1.1v5.7h-1v-1.2a2 2 0 0 1-.7 1c-.3.2-.7.3-1.2.3zm6.6 0c-.5 0-1 0-1.3-.2l-1-.5.3-.8 1 .5 1 .1c.4 0 .7 0 1-.2l.2-.6c0-.2 0-.3-.2-.5l-.6-.2-1.1-.2c-.5-.2-.8-.3-1.1-.6a1.53 1.53 0 0 1-.4-1l.3-.9.8-.6a3.7 3.7 0 0 1 2.4 0c.3 0 .6.3.9.5l-.4.7-.8-.4-.9-.2c-.4 0-.7 0-.9.3-.2.1-.3.3-.3.6 0 .2 0 .3.2.5l.6.2 1 .3c.6 0 1 .2 1.2.5.3.2.4.5.4 1l-.3.9-.8.6-1.2.2zm3.6-.2v-5.6h1.2v5.7h-1.2zm0-6.8V223h1.3v1.2h-1.4zm4.5 6.8l-2.4-5.6h1.2l2 4.7h-.4l2-4.7h1.1l-2.4 5.7h-1zm7 .2a3 3 0 0 1-3-3c0-.6.1-1 .3-1.5.3-.5.6-.8 1-1 .4-.3.9-.4 1.4-.4.6 0 1 0 1.4.3.3.2.6.6.8 1s.3.9.3 1.4v.4h-4.3v-.7h3.5l-.2.2c0-.6-.1-1-.4-1.3-.2-.3-.6-.5-1-.5-.6 0-1 .2-1.3.5-.3.4-.4 1-.4 1.5v.2c0 .6.1 1.1.5 1.5.3.3.8.5 1.4.5.3 0 .6 0 .9-.2.3 0 .6-.2.8-.4l.4.8-1 .5a4 4 0 0 1-1.2.2zm8-.2l-2.1-5.6h1.2l1.7 4.7h-.3l1.7-4.7h.9l1.7 4.7h-.3l1.7-4.7h1.1l-2.1 5.7h-1l-1.9-4.9h.6l-1.8 4.9h-1zm8.4 0v-5.6h1.1v5.7h-1.1zm-.1-6.8V223h1.3v1.2h-1.3zm5.1 7c-.5 0-1-.1-1.4-.4a2 2 0 0 1-.8-1c-.2-.4-.3-1-.3-1.6s0-1.1.3-1.6a2.3 2.3 0 0 1 2.2-1.3c.5 0 .9.1 1.3.4.3.2.6.5.7 1h-.1v-4h1.1v8.4h-1.1v-1.3h.1a2 2 0 0 1-2 1.4zm.3-1c.4 0 .8 0 1.1-.4s.5-.9.5-1.6c0-.6-.2-1.2-.5-1.5s-.7-.5-1.1-.5c-.5 0-1 .2-1.2.5-.3.3-.5.9-.5 1.5 0 .7.2 1.2.5 1.6.3.3.7.5 1.2.5zm7 3.4c-.6 0-1 0-1.5-.2l-1-.5.2-.9a3.6 3.6 0 0 0 2.2.7c.5 0 1-.1 1.2-.4.3-.3.4-.7.4-1.2v-1.5h.1c-.1.4-.3.7-.7 1-.4.2-.8.3-1.3.3s-1 0-1.4-.3c-.3-.2-.6-.6-.8-1-.3-.4-.4-1-.4-1.5 0-.6.1-1 .4-1.5l.8-1c.4-.2.9-.3 1.4-.3s1 .1 1.3.4c.3.2.6.5.7 1v-1.3h1.1a11.1 11.1 0 0 0 0 1.3v4.3c0 .8-.3 1.5-.8 2-.4.4-1 .6-2 .6zm-.1-3.6c.5 0 .9-.1 1.1-.5.3-.3.5-.8.5-1.4s-.2-1-.5-1.4c-.2-.4-.6-.5-1.1-.5-.6 0-1 .1-1.3.5-.3.3-.4.8-.4 1.4s.1 1.1.4 1.4c.3.4.7.5 1.3.5zm7.1 1.2a3 3 0 0 1-2.2-.8c-.6-.5-.8-1.2-.8-2.2 0-.6 0-1 .3-1.5a2 2 0 0 1 1-1c.4-.3.9-.4 1.4-.4s1 0 1.3.3c.4.2.7.6.9 1s.2.9.2 1.4v.4H247v-.7h3.5l-.2.2c0-.6-.2-1-.4-1.3-.3-.3-.6-.5-1-.5-.6 0-1 .2-1.3.5-.3.4-.4 1-.4 1.5v.2c0 .6.1 1.1.4 1.5.4.3.8.5 1.4.5.4 0 .7 0 1-.2.3 0 .5-.2.8-.4l.4.8-1 .5a4 4 0 0 1-1.2.2zm5.7 0c-.7 0-1.1-.2-1.4-.5-.4-.4-.5-.9-.5-1.5v-3h-1.1v-.8h1v-1.5l1.2-.3v1.8h1.6v.9H254v2.8c0 .4.1.7.3.9l.6.2h.4l.3-.1v1h-.8zm4.9 2.3v-7.4l-.1-.7h1l.2 1.3h-.1c0-.5.3-.8.7-1 .4-.3.8-.4 1.3-.4s1 .1 1.3.3c.4.3.7.6.9 1 .2.5.3 1 .3 1.6s-.1 1.2-.3 1.6a2.3 2.3 0 0 1-2.2 1.4c-.5 0-1-.1-1.3-.4-.4-.2-.6-.6-.7-1h.1v3.7h-1.1zm2.7-3.2c.5 0 1-.2 1.2-.5.3-.4.5-.9.5-1.6 0-.6-.2-1.2-.5-1.5s-.7-.5-1.2-.5-.9.2-1.2.5-.4.9-.4 1.5c0 .7.1 1.2.4 1.6.3.3.7.5 1.2.5zm6.3.9c-.5 0-1-.1-1.3-.4-.4-.2-.7-.5-.9-1-.2-.4-.3-1-.3-1.6s.1-1.1.3-1.6a2.3 2.3 0 0 1 2.2-1.3c.5 0 1 .1 1.3.4.4.2.6.5.8 1h-.2l.1-1.3h1.1v5.7h-1.2v-1.3h.1c0 .4-.3.8-.7 1a2 2 0 0 1-1.3.4zm.3-1c.5 0 .9 0 1.2-.4s.4-.9.4-1.6c0-.6-.1-1.2-.4-1.5s-.7-.5-1.2-.5-.9.2-1.2.5-.4.9-.4 1.5c0 .7.1 1.2.4 1.6.3.3.7.5 1.2.5zm6.9 1a3 3 0 0 1-1.5-.4c-.4-.2-.7-.6-1-1-.2-.5-.3-1-.3-1.6s.1-1.1.3-1.6l1-1a3 3 0 0 1 1.5-.3c.4 0 .7 0 1 .2.4 0 .7.3 1 .5l-.4.8a2 2 0 0 0-1.5-.6c-.5 0-1 .2-1.3.5s-.4.9-.4 1.5c0 .7.1 1.2.4 1.5.3.4.8.6 1.3.6.2 0 .5 0 .8-.2l.7-.4.4.8-1 .5-1 .2zm3.2-.2v-8.2h1.1v5l2.5-2.4h1.4l-3 3v-.5l3.3 3.2h-1.5l-2.7-2.6v2.6H279zm-112.5 16l-2.2-5.6h1.2l1.7 4.7h-.3l1.7-4.7h1l1.6 4.7h-.2l1.6-4.7h1.2l-2.2 5.7h-1l-1.8-4.9h.5l-1.7 4.9h-1.1zm8.3 0v-5.6h1.2v5.7h-1.2zm0-6.8V239h1.3v1.2h-1.4zm5.1 7c-.7 0-1.1-.2-1.4-.5-.4-.4-.5-.9-.5-1.5v-3h-1.1v-.8h1v-1.5l1.2-.3v1.8h1.6v.9h-1.6v2.8c0 .4 0 .7.2.9l.7.2h.4l.3-.1v1h-.8zm1.8-.2v-8.2h1.2v3.8h-.2c.2-.4.5-.8.8-1 .4-.2.8-.3 1.3-.3.7 0 1.2.2 1.5.5.3.4.5 1 .5 1.7v3.6h-1.1v-3.5c0-.5-.1-.8-.3-1-.2-.3-.5-.4-1-.4-.4 0-.8.1-1 .4-.4.3-.5.7-.5 1.2v3.3h-1.2zm9.7 0v-5.6h1l.2 1.2h-.2c.2-.4.4-.8.8-1a2 2 0 0 1 1.1-.3c.5 0 .9 0 1.2.3.3.2.5.6.6 1h-.2c.2-.4.4-.7.8-1l1.2-.3c.7 0 1.1.2 1.5.5.3.4.4 1 .4 1.8v3.5h-1.1v-3.5c0-.5 0-.8-.3-1-.1-.3-.4-.4-.8-.4s-.8.1-1 .4c-.3.3-.4.8-.4 1.3v3.2h-1.1v-3.5c0-.5-.1-.8-.3-1-.2-.3-.4-.4-.8-.4s-.8.1-1 .4c-.3.3-.4.8-.4 1.3v3.2h-1.2zm12.6.2a3 3 0 0 1-1.6-.4c-.4-.2-.7-.6-1-1-.1-.4-.3-1-.3-1.6s.2-1.1.4-1.5a1.65 1.65 0 0 1 1-1c.4-.3.8-.4 1.4-.4s1 .1 1.5.3l1 1c.2.5.3 1 .3 1.6s-.1 1.2-.3 1.6c-.3.4-.6.8-1 1a3 3 0 0 1-1.5.4zm0-1c.4 0 .8 0 1.1-.4s.4-.9.4-1.6c0-.6-.1-1.2-.4-1.5s-.7-.5-1.2-.5-.9.2-1.2.5-.4.9-.4 1.5c0 .7.1 1.2.4 1.6.3.3.7.5 1.2.5zm6.2 1c-.5 0-1-.1-1.3-.4-.4-.2-.7-.5-.9-1-.2-.4-.3-1-.3-1.6s.1-1.1.3-1.6a2.3 2.3 0 0 1 2.2-1.3c.5 0 1 .1 1.3.4.4.2.6.5.8 1h-.2v-4h1.2v8.4H212v-1.3h.2c-.2.4-.4.8-.8 1a2 2 0 0 1-1.3.4zm.3-1c.5 0 .9 0 1.2-.4s.4-.9.4-1.6c0-.6-.1-1.2-.4-1.5s-.7-.5-1.2-.5-.9.2-1.2.5-.4.9-.4 1.5c0 .7.1 1.2.4 1.6.3.3.7.5 1.2.5zm7.1 1a3 3 0 0 1-3-3c0-.6.1-1 .3-1.5.3-.5.6-.8 1-1 .4-.3.9-.4 1.4-.4.6 0 1 0 1.4.3.3.2.6.6.8 1s.3.9.3 1.4v.4h-4.3v-.7h3.5l-.2.2c0-.6-.1-1-.4-1.3-.2-.3-.6-.5-1-.5-.6 0-1 .2-1.3.5-.3.4-.4 1-.4 1.5v.2c0 .6.2 1.1.5 1.5.3.3.8.5 1.4.5.3 0 .6 0 .9-.2.3 0 .6-.2.8-.4l.4.8-1 .5a4 4 0 0 1-1.1.2zm3.4-.2v-4.2a11 11 0 0 0 0-1.4h1.1l.1 1.4h-.2l.4-.8.7-.6a2 2 0 0 1 1.4 0v1l-.4-.1h-.3c-.4 0-.6 0-.9.2a1 1 0 0 0-.5.6l-.2.8v3.2h-1.1zm4.3 0v-5.6h1l.2 1.2h-.2c.2-.4.5-.8.8-1 .4-.2.8-.3 1.3-.3.7 0 1.2.2 1.5.5.3.4.5 1 .5 1.8v3.5h-1.1v-3.5c0-.5-.1-.8-.3-1-.2-.3-.5-.4-1-.4-.4 0-.8.1-1 .4-.4.3-.5.7-.5 1.2v3.3h-1.2zm11.9.2c-.5 0-1-.1-1.3-.4-.4-.2-.7-.5-.9-1-.2-.4-.3-1-.3-1.6s.1-1.1.3-1.6a2.3 2.3 0 0 1 2.2-1.3c.5 0 1 .1 1.3.4.4.2.6.5.8 1h-.2l.2-1.3h1v5.7H239v-1.3h.2c-.2.4-.4.8-.8 1a2 2 0 0 1-1.3.4zm.3-1c.5 0 .9 0 1.2-.4s.4-.9.4-1.6c0-.6-.1-1.2-.4-1.5s-.7-.5-1.2-.5-.9.2-1.2.5-.4.9-.4 1.5c0 .7.1 1.2.4 1.6.3.3.7.5 1.2.5zm4.5.8v-4.3l-.1-.6v-.7h1l.2 1.2h-.2c.2-.4.5-.8.8-1 .4-.2.8-.3 1.3-.3.6 0 1.1.2 1.5.5.3.4.5 1 .5 1.8v3.5h-1.1v-3.5c0-.5-.1-.8-.3-1-.2-.3-.5-.4-1-.4-.4 0-.8.1-1.1.4s-.4.7-.4 1.2v3.3h-1.2zm6.6 0v-5.6h1.2v5.7h-1.2zm0-6.8V239h1.3v1.2h-1.4zm2.8 6.8v-5.6h1l.2 1.2h-.2c.2-.4.4-.8.7-1a2 2 0 0 1 1.2-.3c.5 0 .9 0 1.2.3.3.2.5.6.6 1h-.2c.2-.4.4-.7.8-1 .3-.2.8-.3 1.2-.3.7 0 1.1.2 1.5.5.3.4.4 1 .4 1.8v3.5h-1.1v-3.5c0-.5 0-.8-.3-1-.1-.3-.4-.4-.8-.4s-.8.1-1 .4c-.3.3-.4.8-.4 1.3v3.2h-1.1v-3.5c0-.5-.1-.8-.3-1-.2-.3-.4-.4-.8-.4-.5 0-.8.1-1 .4-.3.3-.4.8-.4 1.3v3.2h-1.2zm12.2.2a2 2 0 0 1-1.3-.4c-.4-.2-.6-.5-.9-1-.2-.4-.3-1-.3-1.6s.1-1.1.3-1.6a2.3 2.3 0 0 1 2.2-1.3c.5 0 1 .1 1.3.4.4.2.7.5.8 1h-.1v-1.3h1.2v.7l-.1.6v4.4h-1.2v-1.3h.2c-.2.4-.4.8-.8 1-.3.3-.8.4-1.3.4zm.3-1c.5 0 1 0 1.2-.4.3-.4.5-.9.5-1.6 0-.6-.2-1.2-.5-1.5s-.7-.5-1.2-.5-.9.2-1.2.5-.4.9-.4 1.5c0 .7.1 1.2.4 1.6.3.3.7.5 1.2.5zm6.7 1c-.7 0-1.1-.2-1.4-.5-.4-.4-.5-.9-.5-1.5v-3h-1.1v-.8h1v-1.5l1.2-.3v1.8h1.6v.9h-1.6v2.8c0 .4.1.7.3.9l.6.2h.4l.3-.1v1h-.8zm1.9-.2v-5.6h1v5.7h-1zm-.1-6.8V239h1.3v1.2h-1.3zm5.3 7a3 3 0 0 1-1.5-.4c-.4-.2-.7-.6-1-1-.1-.4-.3-1-.3-1.6s.2-1.1.4-1.5a1.65 1.65 0 0 1 1-1c.4-.3.8-.4 1.4-.4s1 .1 1.5.3l1 1c.2.5.3 1 .3 1.6s-.1 1.2-.4 1.6a2 2 0 0 1-1 1 3 3 0 0 1-1.4.4zm0-1c.5 0 .9 0 1.2-.4s.4-.9.4-1.6c0-.6-.1-1.2-.4-1.5s-.7-.5-1.2-.5-.9.2-1.2.5-.4.9-.4 1.5c0 .7.1 1.2.4 1.6.3.3.7.5 1.2.5zm4.1.8v-5.6h1l.1 1.2c0-.4.4-.8.7-1 .4-.2.8-.3 1.3-.3.6 0 1.1.2 1.5.5.3.4.5 1 .5 1.8v3.5h-1.1v-3.5c0-.5-.1-.8-.3-1-.2-.3-.5-.4-1-.4-.4 0-.8.1-1.1.4s-.4.7-.4 1.2v3.3h-1.2zm49.9-12.4v-8h3.4a3 3 0 0 1 2 .7c.4.3.7 1 .7 1.6 0 .5-.1 1-.4 1.3a2 2 0 0 1-.8.7c-.4.2-.9.3-1.4.3l.2-.2h.3c.3 0 .6 0 .8.2.3.2.5.5.6.8l1.2 2.6H337l-1.2-2.6c0-.3-.2-.5-.5-.6l-.9-.1H333v3.3h-1.2zm1.2-4.2h2c.6 0 1-.2 1.3-.4s.4-.6.4-1c0-.5-.1-.8-.4-1-.3-.3-.7-.4-1.3-.4h-2v2.8zm9.1 4.3a3 3 0 0 1-2.2-.8c-.5-.5-.8-1.2-.8-2.1 0-.6.1-1.1.4-1.6a2 2 0 0 1 1-1c.3-.3.8-.4 1.4-.4.5 0 1 .1 1.3.3.4.3.6.6.8 1s.3.9.3 1.5v.3H340v-.6h3.5l-.2.1c0-.6 0-1-.3-1.3s-.6-.5-1.1-.5c-.6 0-1 .2-1.2.6-.3.3-.5.8-.5 1.5 0 .8.2 1.3.5 1.6s.8.5 1.4.5l1-.1.8-.5.3.8c-.2.2-.5.4-1 .5l-1.1.2zm6 2.4l-1.3-.1c-.4-.2-.8-.3-1.1-.6l.3-.8a3.7 3.7 0 0 0 2.1.6c.6 0 1-.1 1.2-.4.3-.3.5-.7.5-1.2v-1.5c0 .4-.3.8-.7 1-.3.2-.8.4-1.3.4s-1-.1-1.3-.4c-.4-.2-.7-.5-.9-1-.2-.4-.3-.9-.3-1.5l.3-1.5c.2-.4.5-.7.9-1 .4-.2.8-.3 1.3-.3s1 .1 1.3.4c.4.2.6.6.8 1l-.1-.1v-1.2h1.2a10.4 10.4 0 0 0-.1 1.4v4.2a3.22 3.22 0 0 1-.7 2 3 3 0 0 1-2 .6zm0-3.5c.5 0 .9-.2 1.2-.5.3-.4.4-.8.4-1.5 0-.6-.1-1-.4-1.4-.3-.3-.7-.5-1.2-.5s-1 .2-1.2.5c-.3.3-.4.8-.4 1.4 0 .7.1 1.1.4 1.5.3.3.7.5 1.2.5zm6.5 1.1c-.7 0-1.2-.2-1.6-.5a3 3 0 0 1-.5-1.8V229h1.1v3.5c0 .5.1.8.3 1 .2.3.5.4 1 .4.4 0 .8-.2 1-.5.3-.3.4-.7.4-1.2V229h1.2v5.7h-1.1v-1.2h.1a2 2 0 0 1-.7 1l-1.2.3zm4.5-.1v-8.3h1.2v8.3h-1.1zm5 .1c-.5 0-.9-.1-1.3-.3l-.8-1a3 3 0 0 1-.4-1.6c0-.7.1-1.2.4-1.6a2.3 2.3 0 0 1 2.2-1.4c.4 0 .9.1 1.3.4.3.2.6.6.7 1h-.1v-1.3h1.2v.7l-.1.7v4.3h-1.2v-1.3h.2c-.1.5-.4.8-.8 1-.3.3-.8.4-1.2.4zm.3-.9c.5 0 1-.2 1.2-.5.3-.4.5-.9.5-1.5 0-.7-.2-1.2-.5-1.6-.3-.3-.7-.5-1.2-.5s-.9.2-1.2.5c-.3.4-.4.9-.4 1.6 0 .6.1 1.1.4 1.5.3.3.7.5 1.2.5zm4.4.8v-4.3a10.2 10.2 0 0 0 0-1.4h1l.2 1.5h-.2c0-.4.2-.7.4-.9l.7-.5a2 2 0 0 1 1.3-.1v1l-.3-.1h-.4c-.3 0-.6 0-.8.2s-.4.3-.5.6c-.2.2-.2.5-.2.8v3.2h-1.2zm9.3.1c-.6 0-1.2-.2-1.5-.5a3 3 0 0 1-.5-1.8V229h1.1v3.5c0 .5.1.8.3 1 .2.3.5.4 1 .4.4 0 .7-.2 1-.5s.4-.7.4-1.2V229h1.2v5.7h-1.1v-1.2h.1a2 2 0 0 1-.7 1c-.4.2-.8.3-1.3.3zm4.6 2.3v-8h1l.2 1.3h-.2c.2-.4.4-.8.8-1 .3-.3.8-.4 1.3-.4s1 .1 1.3.4c.4.2.7.5.9 1 .2.4.3 1 .3 1.6s-.1 1-.3 1.5a2.3 2.3 0 0 1-2.2 1.4c-.5 0-1-.1-1.3-.4-.4-.2-.6-.5-.7-1v3.7h-1zm2.8-3.2c.5 0 .9-.2 1.2-.5.3-.4.4-.9.4-1.5 0-.7-.1-1.2-.4-1.6-.3-.3-.7-.5-1.2-.5s-.9.2-1.2.5c-.3.4-.4.9-.4 1.6 0 .6.1 1.1.4 1.5.3.3.7.5 1.2.5zm6.3.9c-.5 0-1-.1-1.3-.3-.4-.3-.7-.6-.9-1-.2-.5-.3-1-.3-1.6 0-.7.1-1.2.3-1.6a2.3 2.3 0 0 1 2.2-1.4c.5 0 1 .1 1.3.4.4.2.6.6.7 1h-.1v-4h1.1v8.4h-1v-1.3c0 .4-.3.8-.7 1a2 2 0 0 1-1.3.4zm.3-.9c.5 0 .9-.2 1.2-.5.3-.4.4-.9.4-1.5 0-.7-.1-1.2-.4-1.6-.3-.3-.7-.5-1.2-.5s-1 .2-1.2.5c-.3.4-.4.9-.4 1.6 0 .6.1 1.1.4 1.5.3.3.7.5 1.2.5zm6.6.9c-.5 0-1-.1-1.3-.3l-1-1-.2-1.6c0-.7 0-1.2.3-1.6a2.3 2.3 0 0 1 2.2-1.4c.5 0 1 .1 1.3.4.4.2.6.6.7 1h-.1l.1-1.3h1.1v5.7h-1.2v-1.3h.1c-.1.5-.4.8-.7 1a2 2 0 0 1-1.3.4zm.3-.9c.5 0 .9-.2 1.1-.5.3-.4.5-.9.5-1.5 0-.7-.2-1.2-.5-1.6-.2-.3-.6-.5-1.1-.5s-1 .2-1.2.5c-.3.4-.5.9-.5 1.6 0 .6.2 1.1.5 1.5.3.3.7.5 1.2.5zm6.6.9c-.6 0-1-.2-1.4-.5-.3-.3-.5-.8-.5-1.5v-3h-1v-.8h1v-1.5l1.2-.3v1.8h1.6v.9h-1.6v2.8c0 .4 0 .7.2.9.1.2.4.3.7.3h.3l.3-.2v1h-.4l-.4.1zm4.5 0a3 3 0 0 1-2.2-.8c-.5-.5-.8-1.2-.8-2.1 0-.6.1-1.1.4-1.6a2 2 0 0 1 1-1c.3-.3.8-.4 1.3-.4.6 0 1 .1 1.4.3l.8 1c.2.4.3.9.3 1.5v.3h-4.3v-.6h3.5l-.2.1c0-.6-.1-1-.4-1.3-.2-.3-.6-.5-1-.5-.6 0-1 .2-1.3.6-.3.3-.4.8-.4 1.5 0 .8.2 1.3.5 1.6s.8.5 1.4.5l1-.1.8-.5.3.8-1 .5-1.1.2zm5.5 0c-.5 0-1 0-1.4-.2l-1-.5.4-.8 1 .5 1 .2 1-.2.2-.7c0-.2 0-.3-.2-.4-.1-.2-.3-.2-.6-.3l-1.1-.2c-.5-.1-.9-.3-1.1-.6-.3-.2-.4-.5-.4-1 0-.3.1-.6.3-.8a1.85 1.85 0 0 1 .8-.7 3.7 3.7 0 0 1 2.4 0l.9.5-.4.8-.8-.5-.9-.2a1.69 1.69 0 0 0-1 .3l-.2.6c0 .2 0 .4.2.5l.6.3 1 .2c.6 0 1 .3 1.2.5.3.2.4.6.4 1l-.3.9c-.2.3-.5.5-.8.6l-1.2.2zm8.2-.1l-2.2-5.7h1.2l1.7 4.8h-.3l1.7-4.8h1l1.6 4.8h-.2l1.6-4.8h1.2l-2.2 5.7h-1l-1.8-4.8h.5l-1.7 4.8h-1.1zm8.3 0v-5.7h1.2v5.7H432zm0-6.9v-1.2h1.3v1.2h-1.4zm5 7c-.6 0-1-.2-1.3-.5-.4-.3-.5-.8-.5-1.5v-3H434v-.8h1v-1.5l1.2-.3v1.8h1.6v.9h-1.6v2.8c0 .4 0 .7.2.9s.4.3.7.3h.4l.3-.2v1h-.4l-.4.1zm2-.1v-8.3h1v3.8c0-.4.4-.7.7-1 .4-.2.8-.3 1.3-.3.7 0 1.2.2 1.5.6.3.3.5.9.5 1.7v3.5h-1v-3.5c0-.5-.1-.8-.3-1-.2-.3-.5-.4-1-.4-.4 0-.8.2-1 .5-.4.3-.5.7-.5 1.2v3.2H439zm-95.1 16.1c-.7 0-1.2-.2-1.6-.5a3 3 0 0 1-.5-1.8V245h1.2v3.5c0 .5 0 .8.3 1 .1.3.4.4.8.4.5 0 .9-.2 1.1-.5.3-.3.5-.7.5-1.2V245h1.1v5.7h-1.1v-1.2h.1a2 2 0 0 1-.7 1l-1.2.3zm4.6 2.3v-7.4l-.1-.7h1l.2 1.3h-.1c.1-.4.3-.8.7-1 .4-.3.8-.4 1.3-.4s1 .1 1.3.4c.4.2.7.5.9 1 .2.4.3 1 .3 1.6s0 1-.3 1.5a2.3 2.3 0 0 1-2.2 1.4c-.5 0-1-.1-1.3-.4-.4-.2-.6-.5-.7-1h.1v3.7h-1.1zm2.7-3.2c.5 0 1-.2 1.2-.5.3-.4.5-.9.5-1.5 0-.7-.2-1.2-.5-1.6-.3-.3-.7-.5-1.2-.5s-.9.2-1.2.5c-.3.4-.4.9-.4 1.6 0 .6.1 1.1.4 1.5.3.3.7.5 1.2.5zm6.3.9c-.5 0-.9-.1-1.3-.3-.4-.3-.7-.6-.9-1-.2-.5-.3-1-.3-1.6 0-.7.1-1.2.3-1.6a2.3 2.3 0 0 1 2.2-1.4c.5 0 1 .1 1.3.4.4.2.6.6.8 1h-.2v-4h1.2v8.4h-1.2v-1.3h.2c-.2.4-.4.8-.8 1-.3.3-.8.4-1.3.4zm.3-.9c.5 0 .9-.2 1.2-.5.3-.4.5-.9.5-1.5 0-.7-.2-1.2-.5-1.6-.3-.3-.7-.5-1.2-.5s-.9.2-1.2.5c-.3.4-.4.9-.4 1.6 0 .6.1 1.1.4 1.5.3.3.7.5 1.2.5zm6.6.9c-.5 0-1-.1-1.3-.3-.4-.3-.7-.6-.9-1-.2-.5-.3-1-.3-1.6 0-.7.1-1.2.3-1.6a2.3 2.3 0 0 1 2.2-1.4c.5 0 1 .1 1.3.4.4.2.6.6.8 1h-.2l.1-1.3h1.1v5.7h-1.2v-1.3h.1c0 .5-.3.8-.7 1a2 2 0 0 1-1.3.4zm.3-.9c.5 0 .9-.2 1.2-.5.3-.4.4-.9.4-1.5 0-.7-.1-1.2-.4-1.6-.3-.3-.7-.5-1.2-.5s-.9.2-1.2.5c-.3.4-.4.9-.4 1.6 0 .6.1 1.1.4 1.5.3.3.7.5 1.2.5zm6.6.9c-.6 0-1-.2-1.4-.5-.3-.3-.4-.8-.4-1.5v-3h-1.1v-.8h1v-1.5l1.2-.3v1.8h1.6v.9h-1.6v2.8c0 .4 0 .7.2.9s.4.3.7.3h.4l.3-.2v1h-.4l-.5.1zm4.5 0a3 3 0 0 1-2.2-.8c-.5-.5-.8-1.2-.8-2.1 0-.6.2-1.1.4-1.6a2 2 0 0 1 1-1c.4-.3.8-.4 1.4-.4.5 0 1 .1 1.3.3.4.3.7.6.8 1 .2.4.3.9.3 1.5v.3h-4.3v-.6h3.5l-.1.1c0-.6-.2-1-.4-1.3-.3-.3-.6-.5-1.1-.5s-1 .2-1.2.6c-.3.3-.5.8-.5 1.5 0 .8.2 1.3.5 1.6.4.3.8.5 1.4.5l1-.1.8-.5.4.8-1 .5-1.2.2zm5.7 0c-.5 0-1-.1-1.3-.3-.4-.3-.7-.6-.9-1-.2-.5-.3-1-.3-1.6 0-.7.1-1.2.3-1.6a2.3 2.3 0 0 1 2.2-1.4c.5 0 1 .1 1.3.4.4.2.6.6.7 1v-4h1v8.4h-1v-1.3c0 .4-.3.8-.7 1a2 2 0 0 1-1.3.4zm.3-.9c.5 0 .9-.2 1.2-.5.3-.4.4-.9.4-1.5 0-.7-.1-1.2-.4-1.6-.3-.3-.7-.5-1.2-.5s-.9.2-1.2.5c-.3.4-.4.9-.4 1.6 0 .6.1 1.1.4 1.5.3.3.7.5 1.2.5zm9.6.9c-.5 0-1-.1-1.3-.3-.4-.3-.7-.6-.9-1-.2-.5-.3-1-.3-1.6 0-.7.1-1.2.3-1.6a2.3 2.3 0 0 1 2.2-1.4c.5 0 1 .1 1.3.4.4.2.6.6.7 1v-1.3h1.1a165.7 165.7 0 0 1 0 1.4v4.3h-1.2v-1.3h.1c0 .5-.3.8-.7 1a2 2 0 0 1-1.3.4zm.3-.9c.5 0 .9-.2 1.2-.5.3-.4.4-.9.4-1.5 0-.7-.1-1.2-.4-1.6-.3-.3-.7-.5-1.2-.5s-1 .2-1.2.5c-.3.4-.4.9-.4 1.6 0 .6.1 1.1.4 1.5.3.3.7.5 1.2.5zm4.3.8v-4.3a10.9 10.9 0 0 0 0-1.4h1.1l.2 1.5h-.2c0-.4.2-.7.4-.9l.6-.5a2 2 0 0 1 1.4-.1v1l-.4-.1h-.3c-.3 0-.6 0-.8.2-.3.2-.5.3-.6.6l-.2.8v3.2h-1.1zm6.8.1a3 3 0 0 1-1.5-.3c-.4-.3-.8-.6-1-1-.2-.5-.3-1-.3-1.7 0-.6 0-1.1.3-1.5a2 2 0 0 1 1-1 3 3 0 0 1 1.5-.4c.4 0 .7 0 1 .2l1 .5-.5.8a2 2 0 0 0-1.4-.6c-.6 0-1 .2-1.3.5-.3.4-.5.9-.5 1.5 0 .7.2 1.2.5 1.6.3.3.7.5 1.3.5l.7-.1.7-.5.4.8a2 2 0 0 1-.9.5l-1 .2zm3.2-.1v-8.3h1v3.8c0-.4.3-.7.7-1 .4-.2.8-.3 1.3-.3.7 0 1.2.2 1.5.6.3.3.5.9.5 1.7v3.5h-1.1v-3.5c0-.5-.1-.8-.3-1-.2-.3-.5-.4-1-.4-.4 0-.8.2-1.1.5s-.4.7-.4 1.2v3.2h-1.2zm6.6 0v-5.7h1.2v5.7h-1.2zm0-6.9v-1.2h1.3v1.2h-1.4zm5 7c-.6 0-1-.2-1.4-.5-.3-.3-.4-.8-.4-1.5v-3h-1.1v-.8h1v-1.5l1.2-.3v1.8h1.6v.9h-1.6v2.8c0 .4 0 .7.2.9s.4.3.7.3h.4l.3-.2v1h-.4l-.5.1zm4.5 0a3 3 0 0 1-2.2-.8c-.5-.5-.7-1.2-.7-2.1 0-.6 0-1.1.3-1.6a2 2 0 0 1 1-1c.4-.3.8-.4 1.4-.4.5 0 1 .1 1.3.3.4.3.7.6.9 1l.2 1.5v.3H420v-.6h3.6l-.2.1c0-.6-.2-1-.4-1.3-.3-.3-.6-.5-1.1-.5s-1 .2-1.2.6c-.3.3-.4.8-.4 1.5 0 .8.1 1.3.4 1.6.4.3.8.5 1.4.5l1-.1.8-.5.4.8-1 .5-1.2.2zm6 0a3 3 0 0 1-1.5-.3l-1-1c-.2-.5-.3-1-.3-1.7 0-.6.1-1.1.4-1.5a1.65 1.65 0 0 1 1-1 3 3 0 0 1 1.4-.4c.4 0 .8 0 1.1.2.4.1.7.3.9.5l-.4.8a2 2 0 0 0-1.5-.6c-.5 0-1 .2-1.3.5-.3.4-.4.9-.4 1.5 0 .7.1 1.2.4 1.6.4.3.8.5 1.3.5l.8-.1.7-.5.4.8-.9.5-1 .2zm5.4 0c-.6 0-1-.2-1.4-.5-.3-.3-.5-.8-.5-1.5v-3h-1v-.8h1v-1.5l1.2-.3v1.8h1.6v.9h-1.6v2.8c0 .4 0 .7.2.9s.4.3.7.3h.3l.3-.2v1h-.4l-.4.1z"/><path fill="#00275e" d="m226.5 70.8 35.2-19.1a1.6 1.6 0 0 0 0-2.8l-34-20.4a1.7 1.7 0 0 0-1.8 0l-37.3 20.8a1.6 1.6 0 0 0 0 2.8L222 70.8a4.8 4.8 0 0 0 4.6 0Z"/><path fill="#eb773a" d="M220.5 42.4s-7.1 3.8-8.8 13c0 0 7 1.4 16.2-6.3"/><path fill="#ffae46" d="M220.4 43.6s-3 2.7-3.9 4.6l-2 4.8s5.4.4 10.4-2.6c5-3.1.3-8.9-4.5-6.8Z"/><path fill="#fad374" d="M223.5 42.6c-.2.3-3.4 2.1-4 4.6l1-.7s-1.7 2.4-2.4 3.8l4.1-1.6-1.2 1s3.2-.1 5.4-2.1-.8-5.4-.8-5.4l-2.1.4Z"/><use xlink:href="#G" class="B"/><use xlink:href="#G" class="O"/><use xlink:href="#H" class="B"/><use xlink:href="#H" class="O"/><g class="B"><path d="M246.4 31.5c1-1.5 1.7-3 2.3-4.7 0 0-2.1 0-5.2 1 .2 1.5 1.5 2.8 2.9 3.7ZM238 38c1-.8 1.1-2.3.2-3.4-.8-1.1-2.3-1.4-3.3-.7-1 .8-1.1 2.3-.3 3.4.9 1.1 2.4 1.5 3.4.7Z"/><path d="M256 21.1s-19.7 5-29.7 19.5c0 0-2.4 2.5-1.3 3.9 1.2 1.4 5 .3 5 .3s12.4-3.6 26-23.7Z"/><use xlink:href="#I"/></g><use xlink:href="#I" class="O"/><use xlink:href="#J" class="B"/><use xlink:href="#J" fill="#606060"/><path d="M250.2 46.1a.2.2 0 1 0 0 .5.2.2 0 0 0 0-.5Zm-11.9 9.4v.1a.2.2 0 0 0 .4 0v-.1a.2.2 0 0 0-.4-.2v.2Zm-16.5 3.7v.2a.2.2 0 0 0 .5 0v-.2a.2.2 0 0 0-.5 0Zm15.4-11.4a.2.2 0 1 0 0 .4.2.2 0 0 0 0-.4Zm-28.2-.5a.2.2 0 1 0 0 .5.2.2 0 0 0 0-.5Zm-10.6.7v.1a.2.2 0 0 0 .4.2V48a.2.2 0 0 0-.4 0Zm5.1 7.4a.2.2 0 0 0-.2.4.2.2 0 0 0 .4-.2.2.2 0 0 0-.2-.2Zm7.7-13.4-.1.1v.2a.2.2 0 1 0 .3-.2h-.2Zm11.6-7.4a.2.2 0 0 0-.2.4.2.2 0 1 0 .2-.4Zm7 29.4a.2.2 0 1 0 0 .4.2.2 0 0 0 0-.5Z" class="F"/><path fill="#ffae46" d="M245.4 50.7c-1.5 0-1.5 2.4 0 2.4s1.5-2.4 0-2.4Zm-42.2-1.3c-1.6 0-1.6 2.3 0 2.3 1.5 0 1.5-2.3 0-2.3Z"/><path fill="#00aee1" d="M225.7 64.8a1.2 1.2 0 0 0-2 .9v.1c0 .3.1.6.3.8a1.2 1.2 0 0 0 2-.8v-.1c0-.3 0-.6-.3-.9Z"/><path d="M204.2 33.4a5.1 5.1 0 1 0 0-10.3 5.1 5.1 0 0 0 0 10.3Z" class="B"/><path fill="#8cc63f" d="M208.4 25.4a13.2 13.2 0 0 1 2.4-.4h1l.4.2.2.2.1.3-.1.6-.3.4a7 7 0 0 1-1.2 1.2l-2.8 1.9a31.9 31.9 0 0 1-7.8 3.1 11 11 0 0 1-2.6.2c-.3 0-.6 0-1-.2l-.3-.3a1.1 1.1 0 0 1-.3-1l.1-.5c.3-.5.7-1 1.2-1.3l1.4-1-1.2 1.2-.9 1.3v.6l.1.2.3.1c.5.2 1 .2 1.4.2 1.1-.2 2.2-.4 3.2-.8a39.5 39.5 0 0 0 8.8-4.3 7.5 7.5 0 0 0 1.4-1.3v-.2a.2.2 0 0 0 0-.2l-.3-.1c-.5-.2-1-.2-1.6-.2l-1.6.1Z"/><defs><linearGradient id="L" x1="59.7" x2="43.2" y1="190" y2="200.5" xlink:href="#K"><stop stop-color="#d4a397"/><stop offset="1" stop-color="#fff"/></linearGradient><linearGradient id="M" x1="70.1" x2="60.5" y1="183.5" y2="197.7" xlink:href="#K"><stop stop-color="#d4a397"/><stop offset="1" stop-color="#fff"/></linearGradient><linearGradient id="N" x1="104.7" x2="55.3" y1="160.4" y2="183.2" xlink:href="#K"><stop stop-color="#d4a397"/><stop offset="1" stop-color="#fff"/></linearGradient><linearGradient id="O" x1="398.8" x2="368.3" y1="157.5" y2="180.2" xlink:href="#K"><stop stop-color="#d4a397"/><stop offset="1" stop-color="#ffd6a9"/></linearGradient><linearGradient id="P" x1="388.9" x2="385.3" y1="184.7" y2="189.1" xlink:href="#K"><stop stop-color="#d4a397"/><stop offset="1" stop-color="#ffd6a9"/></linearGradient><linearGradient id="Q" x1="413.8" x2="374" y1="163.2" y2="191.4" xlink:href="#K"><stop stop-color="#d4a397"/><stop offset="1" stop-color="#ffd6a9"/></linearGradient><linearGradient id="R" x1="403.5" x2="371.8" y1="167.4" y2="197.3" xlink:href="#K"><stop stop-color="#d4a397"/><stop offset="1" stop-color="#ffd6a9"/></linearGradient><linearGradient id="S" x1="208" x2="240.1" y1="232.9" y2="211.4" xlink:href="#K"><stop stop-color="#fff" stop-opacity="0"/><stop offset="1" stop-color="#d43500"/></linearGradient></defs></svg>