<svg xmlns="http://www.w3.org/2000/svg" fill="none" viewBox="0 0 460 112">
  <path fill="#fff" d="M0 0h460v112H0z"/>
  <path fill="#0C836D" d="M162.7 40.8a8.8 8.8 0 0 1-1.9-.2 8.7 8.7 0 0 1-1.7-.6 6.2 6.2 0 0 1-1.5-1l.8-1.6c.7.5 1.3.9 2 1.2a6.7 6.7 0 0 0 2.3.3c1 0 1.8-.2 2.3-.7a3 3 0 0 0 1-2.1 3 3 0 0 0-1-2.2 3 3 0 0 0-2.2-.8c-.6 0-1.2 0-1.8.4a4 4 0 0 0-1.4 1.2h-1.5v-9h9v1.9h-7v5.3h-.5a3.8 3.8 0 0 1 1.6-1.2 5 5 0 0 1 4.7.1 4 4 0 0 1 1.5 1.7c.4.7.6 1.5.6 2.5s-.2 1.8-.6 2.5a4 4 0 0 1-1.9 1.7 6 6 0 0 1-2.8.6Zm12.5 0c-1.7 0-3-.7-4-2a10 10 0 0 1-1.4-5.6c0-2.5.5-4.4 1.4-5.7 1-1.3 2.3-2 4-2 1.7 0 3 .7 4 2a9.9 9.9 0 0 1 1.3 5.6 10 10 0 0 1-1.4 5.7c-.9 1.3-2.2 2-4 2Zm0-1.8c1 0 1.9-.5 2.4-1.5.5-.9.8-2.4.8-4.4a9 9 0 0 0-.8-4.3c-.5-1-1.3-1.4-2.4-1.4-1 0-1.9.4-2.4 1.4a9 9 0 0 0-.8 4.3c0 2 .2 3.5.8 4.4.5 1 1.3 1.5 2.4 1.5Zm11.8.8v-4.5h-4.4v-1.5h4.4v-4.4h1.6v4.4h4.4v1.5h-4.4v4.5H187Zm14.5.8V25.7h6.3c1.6 0 2.8.4 3.7 1.2a4 4 0 0 1 1.2 3.2 4 4 0 0 1-1.2 3.1c-.9.8-2.1 1.2-3.7 1.2h-4.1v6.2h-2.2Zm2.2-8h3.9c1 0 1.7-.2 2.2-.6.5-.5.8-1.1.8-2 0-.8-.3-1.4-.8-1.8-.5-.5-1.2-.7-2.2-.7h-3.9v5.2Zm11.2 8v-9.3a19.8 19.8 0 0 0 0-1.3h2l.2 2.7h-.3a4 4 0 0 1 .7-1.6 3.1 3.1 0 0 1 1.2-1 3.9 3.9 0 0 1 1.6-.3h.5l.5.1v2a2.1 2.1 0 0 0-.7-.3 4 4 0 0 0-.6 0 3 3 0 0 0-1.6.4 2.6 2.6 0 0 0-1 1.1 3.4 3.4 0 0 0-.3 1.5v6h-2.2Zm12.4.2c-1 0-2-.2-2.7-.7a4.6 4.6 0 0 1-1.8-1.9c-.4-.8-.6-1.8-.6-3 0-1 .2-2 .6-2.8.4-.9 1-1.5 1.8-2a6 6 0 0 1 2.7-.6 5 5 0 0 1 2.8.7 4.4 4.4 0 0 1 1.8 1.9 6.5 6.5 0 0 1 0 5.9 4.5 4.5 0 0 1-1.8 1.8 5 5 0 0 1-2.8.7Zm0-1.7c1 0 1.7-.3 2.3-1 .5-.6.8-1.5.8-2.8s-.3-2.2-.8-2.9a3 3 0 0 0-2.3-1c-.9 0-1.6.4-2.1 1-.6.7-.9 1.6-.9 2.9 0 1.3.3 2.2.8 2.9a3 3 0 0 0 2.2 1Zm8.3 1.5v-9h-2.1V30h2.7l-.6.5v-1.7c0-1.2.3-2.2 1-2.8.6-.7 1.5-1 2.7-1h1l.7.3V27a3 3 0 0 0-.6-.2 3.2 3.2 0 0 0-.7 0c-.4 0-.8 0-1.1.2a1.6 1.6 0 0 0-.7.7l-.2 1.3v1.4l-.3-.4h3.2v1.6h-2.9v9h-2.1Zm11.4.2c-1.7 0-3-.5-4-1.5s-1.6-2.3-1.6-4c0-1.1.3-2 .7-2.9a5 5 0 0 1 1.8-2c.7-.4 1.6-.6 2.7-.6 1 0 1.8.2 2.5.6a4 4 0 0 1 1.5 1.8c.4.8.5 1.7.5 2.7v.7h-8v-1.2h6.6l-.4.2c0-1-.2-1.8-.7-2.4-.5-.6-1.1-.9-2-.9a3 3 0 0 0-2.3 1c-.5.7-.8 1.6-.8 2.8v.3c0 1.2.3 2.1.9 2.8.6.6 1.5 1 2.6 1a5.7 5.7 0 0 0 1.7-.3 4.8 4.8 0 0 0 1.6-1l.7 1.5c-.5.5-1 .8-1.8 1a7.3 7.3 0 0 1-2.2.4Zm10.2 0a8.4 8.4 0 0 1-2.4-.3c-.8-.3-1.4-.6-1.9-1l.7-1.4a5.6 5.6 0 0 0 1.7.8 6.5 6.5 0 0 0 2 .3c.7 0 1.3-.1 1.7-.4.4-.2.6-.6.6-1.1 0-.4-.1-.7-.4-.9-.2-.2-.6-.4-1.2-.5l-2-.4a4 4 0 0 1-2-1c-.5-.5-.8-1.1-.8-1.8s.2-1.2.5-1.7c.4-.5.9-1 1.5-1.2a7.8 7.8 0 0 1 4.5-.1c.6.3 1.2.6 1.6 1l-.6 1.4a4.8 4.8 0 0 0-1.5-.8 4.6 4.6 0 0 0-1.7-.4c-.8 0-1.3.2-1.7.5-.4.3-.6.7-.6 1.2 0 .3.1.6.4.9l1 .5 2 .4c1 .2 1.8.5 2.2 1 .5.4.8 1 .8 1.8 0 .6-.2 1.2-.6 1.7-.4.5-.9.9-1.5 1.1-.7.3-1.4.4-2.3.4Zm10.5 0a8.4 8.4 0 0 1-2.4-.3c-.8-.3-1.4-.6-1.9-1l.7-1.4c.5.3 1 .6 1.7.8a6.5 6.5 0 0 0 2 .3c.7 0 1.3-.1 1.7-.4a1.3 1.3 0 0 0 .6-1.1c0-.4-.1-.7-.4-.9-.2-.2-.6-.4-1.2-.5l-2-.4a4 4 0 0 1-2-1c-.5-.5-.8-1.1-.8-1.8s.2-1.2.5-1.7c.4-.5.9-1 1.5-1.2a7.8 7.8 0 0 1 4.5-.1c.6.3 1.2.6 1.6 1l-.6 1.4a4.8 4.8 0 0 0-1.5-.8 4.6 4.6 0 0 0-1.7-.4c-.8 0-1.3.2-1.7.5a1.4 1.4 0 0 0-.6 1.2c0 .3.1.6.4.9l1 .5 2 .4c1 .2 1.8.5 2.2 1 .5.4.8 1 .8 1.8 0 .6-.2 1.2-.6 1.7-.4.5-.9.9-1.5 1.1-.7.3-1.4.4-2.3.4Zm6.9-.2V30h2.1v10.6h-2.1Zm-.2-12.8v-2.2h2.5v2.2h-2.5Zm10 13c-1 0-2-.2-2.8-.7a4.6 4.6 0 0 1-1.8-1.9c-.4-.8-.6-1.8-.6-3 0-1 .2-2 .6-2.8a5 5 0 0 1 1.8-2 6 6 0 0 1 2.8-.6c1 0 2 .2 2.7.7a4.4 4.4 0 0 1 1.8 1.9c.5.8.7 1.8.7 2.9a6 6 0 0 1-.7 3 4.5 4.5 0 0 1-1.8 1.8 5 5 0 0 1-2.7.7Zm0-1.7c.9 0 1.6-.3 2.2-1 .5-.6.8-1.5.8-2.8s-.3-2.2-.8-2.9a3 3 0 0 0-2.2-1c-1 0-1.7.4-2.2 1-.6.7-.8 1.6-.8 2.9 0 1.3.2 2.2.8 2.9.5.6 1.2 1 2.2 1Zm7.7 1.5v-9.3a41 41 0 0 0-.2-1.3h2l.3 2.2h-.3c.3-.8.8-1.4 1.5-1.8.7-.4 1.5-.6 2.3-.6 1.3 0 2.2.3 2.9 1 .6.7 1 1.8 1 3.2v6.6h-2.2v-6.4c0-1-.2-1.7-.6-2-.3-.5-.9-.7-1.6-.7a3 3 0 0 0-2.2.8 3 3 0 0 0-.8 2.3v6h-2.1Zm16.5.2a4 4 0 0 1-2.4-.7 4 4 0 0 1-1.7-1.9 7 7 0 0 1-.5-3 7 7 0 0 1 .5-2.9 4.4 4.4 0 0 1 4.1-2.5c1 0 1.8.2 2.5.7a3.3 3.3 0 0 1 1.3 1.9h-.2l.2-2.4h2v10.6h-2.2v-2.4h.2c-.2.8-.7 1.5-1.4 2-.7.4-1.5.6-2.4.6Zm.6-1.7c.9 0 1.6-.3 2.2-1 .5-.6.8-1.5.8-2.8s-.3-2.2-.8-2.9a3 3 0 0 0-4.5 0c-.5.7-.8 1.6-.8 2.9 0 1.3.3 2.2.8 2.9a3 3 0 0 0 2.3 1Zm8.2 1.5V25.1h2.1v15.5h-2Zm5.3 0V25.1h2.1v15.5h-2.1Zm4.9 4.8-.5-1.7 1.6-.5c.5-.2.9-.5 1.2-.8.3-.3.5-.7.7-1.2l.5-1.3v.9L326.5 30h2.3l3.5 8.8h-.5l3.6-8.8h2.2l-5 11.4a4 4 0 0 1-1 1.7 5.3 5.3 0 0 1-1 1.2 5.1 5.1 0 0 1-1.4.7l-1.6.4ZM161.8 65.8a4 4 0 0 1-2.4-.7 4 4 0 0 1-1.7-1.9 7 7 0 0 1-.5-3 7 7 0 0 1 .5-2.9 4.4 4.4 0 0 1 4.1-2.5c1 0 1.8.2 2.4.7a3.2 3.2 0 0 1 1.4 1.8h-.2v-7.2h2.1v15.5h-2.1v-2.4h.3a3.4 3.4 0 0 1-1.4 1.9 4 4 0 0 1-2.5.7Zm.6-1.7c.9 0 1.6-.3 2.2-1 .5-.6.8-1.5.8-2.8s-.3-2.2-.8-2.9a3 3 0 0 0-4.5 0c-.5.7-.8 1.6-.8 2.9 0 1.3.3 2.2.8 2.9a3 3 0 0 0 2.3 1Zm13.1 1.7c-1.7 0-3-.5-4-1.5s-1.5-2.3-1.5-4c0-1.1.2-2 .6-2.9.5-.8 1-1.5 1.8-2a6 6 0 0 1 5.2 0 4 4 0 0 1 1.6 1.8c.3.8.5 1.7.5 2.7v.7h-8v-1.2h6.5l-.3.2c0-1-.3-1.8-.7-2.4-.5-.6-1.2-.9-2-.9-1 0-1.8.4-2.4 1-.5.7-.8 1.6-.8 2.8v.3c0 1.2.4 2.1 1 2.8.6.6 1.4 1 2.6 1 .6 0 1.2-.2 1.7-.3a4.8 4.8 0 0 0 1.6-1l.7 1.5a4 4 0 0 1-1.8 1 7.3 7.3 0 0 1-2.3.4Zm10.3 0a8.4 8.4 0 0 1-2.5-.3c-.7-.3-1.3-.6-1.8-1l.6-1.4c.5.3 1.1.6 1.8.8a6.5 6.5 0 0 0 1.9.3c.8 0 1.3-.1 1.7-.4a1.3 1.3 0 0 0 .6-1.1c0-.4 0-.7-.3-.9l-1.2-.5-2-.4a4 4 0 0 1-2.1-1c-.5-.5-.7-1.1-.7-1.8s.2-1.2.5-1.7.8-1 1.5-1.2a6.9 6.9 0 0 1 4.4 0 4 4 0 0 1 1.7.9l-.7 1.4a4.8 4.8 0 0 0-1.4-.8 4.6 4.6 0 0 0-1.7-.4 3 3 0 0 0-1.8.5 1.4 1.4 0 0 0-.5 1.2c0 .3 0 .6.3.9.2.2.6.4 1.1.5l2 .4c1 .2 1.7.5 2.2 1 .5.4.7 1 .7 1.8 0 .6-.2 1.2-.5 1.7a3 3 0 0 1-1.6 1.1 5 5 0 0 1-2.2.4Zm6.8-.2V55h2.2v10.6h-2.2Zm-.1-12.8v-2.2h2.4v2.2h-2.4Zm10.2 17.5c-1 0-1.9 0-2.7-.3a6.7 6.7 0 0 1-2-1l.5-1.6a6.9 6.9 0 0 0 4 1.2c1 0 1.8-.2 2.3-.7.5-.5.8-1.3.8-2.3v-2.8h.2c-.2.8-.7 1.4-1.4 1.9a4.9 4.9 0 0 1-5 0c-.6-.4-1.2-1-1.6-1.8a8.2 8.2 0 0 1 0-5.6c.4-.8 1-1.4 1.7-1.9.7-.4 1.5-.6 2.5-.6s1.7.2 2.4.7a3.2 3.2 0 0 1 1.4 1.8l-.2-.1.2-2.2h2a20.6 20.6 0 0 0-.1 2.5v7.9c0 1.6-.5 2.8-1.3 3.7-.9.8-2 1.2-3.7 1.2Zm-.2-6.6c1 0 1.7-.3 2.2-1 .6-.6.9-1.5.9-2.6 0-1.2-.3-2-.9-2.7-.5-.6-1.3-1-2.2-1a3 3 0 0 0-2.3 1c-.5.6-.8 1.5-.8 2.7 0 1.1.3 2 .8 2.6.6.7 1.4 1 2.3 1Zm8.3 1.9v-9.3a44.3 44.3 0 0 0-.2-1.3h2l.3 2.2h-.3c.3-.8.8-1.4 1.5-1.8.7-.4 1.5-.6 2.4-.6 1.2 0 2.1.3 2.8 1 .6.7 1 1.8 1 3.2v6.6H218v-6.4c0-1-.2-1.7-.5-2-.4-.5-1-.7-1.7-.7-1 0-1.6.3-2.2.8a3 3 0 0 0-.8 2.3v6h-2.1Zm17.4.2c-1.7 0-3-.5-4-1.5s-1.5-2.3-1.5-4c0-1.1.2-2 .6-2.9a5 5 0 0 1 1.8-2 6 6 0 0 1 5.2 0 4 4 0 0 1 1.5 1.8c.4.8.5 1.7.5 2.7v.7h-8v-1.2h6.6l-.4.2c0-1-.2-1.8-.7-2.4-.4-.6-1.1-.9-2-.9a3 3 0 0 0-2.3 1c-.5.7-.8 1.6-.8 2.8v.3c0 1.2.3 2.1 1 2.8.5.6 1.4 1 2.5 1a5.7 5.7 0 0 0 1.8-.3 4.8 4.8 0 0 0 1.5-1l.7 1.5c-.5.5-1 .8-1.8 1a7.3 7.3 0 0 1-2.2.4Zm10.7 0a4 4 0 0 1-2.5-.7 4 4 0 0 1-1.7-1.9 7 7 0 0 1-.5-3 7 7 0 0 1 .5-2.9 4.4 4.4 0 0 1 4.2-2.5 4 4 0 0 1 2.4.7 3.2 3.2 0 0 1 1.4 1.8h-.3v-7.2h2.1v15.5h-2v-2.4h.2a3.4 3.4 0 0 1-1.4 1.9 4 4 0 0 1-2.4.7Zm.5-1.7c.9 0 1.6-.3 2.2-1 .6-.6.8-1.5.8-2.8s-.2-2.2-.8-2.9a3 3 0 0 0-2.2-1c-1 0-1.7.4-2.2 1-.6.7-.9 1.6-.9 2.9 0 1.3.3 2.2.9 2.9.5.6 1.3 1 2.2 1Zm14.5 1.5v-9h-2V55h2.6l-.6.5v-1.7c0-1.2.3-2.2 1-2.8.6-.7 1.5-1 2.7-1h1l.8.3V52a2.9 2.9 0 0 0-.7-.2 3.2 3.2 0 0 0-.7 0 2 2 0 0 0-1 .2 1.6 1.6 0 0 0-.8.7L256 54v1.4l-.3-.4h3.2v1.6H256v9h-2Zm6.7 0v-8a20.4 20.4 0 0 0-.1-2.6h2l.3 2.7h-.3a4 4 0 0 1 .7-1.6 3.1 3.1 0 0 1 1.2-1 3.9 3.9 0 0 1 1.5-.3h.6l.5.1v2a2.1 2.1 0 0 0-.7-.3 4 4 0 0 0-.6 0c-.6 0-1.2.1-1.6.4a2.6 2.6 0 0 0-1 1.1 3.4 3.4 0 0 0-.3 1.5v6h-2.2Zm12.8.2c-1.7 0-3-.5-4-1.5s-1.5-2.3-1.5-4c0-1.1.2-2 .6-2.9a5 5 0 0 1 1.8-2 6 6 0 0 1 5.2 0 4 4 0 0 1 1.5 1.8c.4.8.5 1.7.5 2.7v.7h-8v-1.2h6.6l-.4.2c0-1-.2-1.8-.7-2.4-.5-.6-1.1-.9-2-.9a3 3 0 0 0-2.3 1c-.5.7-.8 1.6-.8 2.8v.3c0 1.2.3 2.1 1 2.8.5.6 1.4 1 2.5 1a5.7 5.7 0 0 0 1.8-.3 4.8 4.8 0 0 0 1.5-1l.7 1.5c-.5.5-1 .8-1.8 1a7.3 7.3 0 0 1-2.2.4Zm11.5 0c-1.7 0-3-.5-4-1.5s-1.5-2.3-1.5-4c0-1.1.2-2 .6-2.9a5 5 0 0 1 1.8-2 6 6 0 0 1 5.2 0 4 4 0 0 1 1.5 1.8c.4.8.6 1.7.6 2.7v.7h-8v-1.2h6.5l-.4.2c0-1-.2-1.8-.7-2.4-.4-.6-1.1-.9-2-.9a3 3 0 0 0-2.3 1c-.5.7-.8 1.6-.8 2.8v.3c0 1.2.3 2.1 1 2.8.5.6 1.4 1 2.5 1 .7 0 1.2-.2 1.8-.3a4.8 4.8 0 0 0 1.5-1l.7 1.5c-.5.5-1 .8-1.8 1a7.3 7.3 0 0 1-2.2.4Zm16.3 0c-1.1 0-2-.3-2.6-1-.6-.6-.9-1.5-.9-2.8v-5.4h-2V55h2v-2.8l2.2-.6V55h3v1.6h-3V62c0 .7.1 1.3.4 1.6.3.4.7.5 1.2.5h.7l.6-.2v1.7a3.3 3.3 0 0 1-.8.2 4 4 0 0 1-.8 0Zm8.4 0c-1.7 0-3-.5-4-1.5s-1.5-2.3-1.5-4c0-1.1.2-2 .6-2.9a5 5 0 0 1 1.8-2c.8-.4 1.6-.6 2.7-.6 1 0 1.8.2 2.5.6a4 4 0 0 1 1.5 1.8c.4.8.5 1.7.5 2.7v.7h-8v-1.2h6.6l-.4.2c0-1-.2-1.8-.7-2.4-.5-.6-1.1-.9-2-.9a3 3 0 0 0-2.3 1c-.5.7-.8 1.6-.8 2.8v.3c0 1.2.3 2.1 1 2.8.5.6 1.4 1 2.5 1a5.7 5.7 0 0 0 1.8-.3 4.8 4.8 0 0 0 1.5-1l.7 1.5c-.5.5-1 .8-1.8 1a7.3 7.3 0 0 1-2.2.4Zm6.6-.2v-9.3a41 41 0 0 0-.2-1.3h2l.3 2.2h-.3c.3-.8.8-1.4 1.4-1.8.6-.4 1.3-.6 2.2-.6.8 0 1.6.2 2.1.6.6.4 1 1 1.2 2h-.4a3.6 3.6 0 0 1 1.5-2 4 4 0 0 1 2.3-.6c1.2 0 2 .3 2.7 1 .6.7.8 1.8.8 3.2v6.6h-2v-6.5c0-.9-.2-1.6-.6-2-.3-.4-.8-.6-1.5-.6a3 3 0 0 0-2 .8c-.4.6-.6 1.4-.6 2.3v6h-2.2v-6.5c0-.9-.1-1.6-.5-2-.3-.4-.8-.6-1.5-.6-.8 0-1.4.3-1.9.8-.5.6-.7 1.4-.7 2.3v6h-2.1Zm18.7 4.6V56.3a41 41 0 0 0-.2-1.3h2l.3 2.4h-.2a3.3 3.3 0 0 1 1.3-2c.7-.4 1.5-.6 2.5-.6s1.7.2 2.4.7c.7.4 1.3 1 1.7 1.8.4.9.5 1.8.5 3 0 1.1-.1 2.1-.5 3a4.2 4.2 0 0 1-4.1 2.5 4 4 0 0 1-2.5-.7 3.3 3.3 0 0 1-1.3-1.9h.2v7h-2Zm5.1-6a3 3 0 0 0 2.3-1c.5-.7.8-1.6.8-3s-.3-2.1-.8-2.8a3 3 0 0 0-4.5 0c-.5.7-.8 1.6-.8 2.9 0 1.3.3 2.2.8 2.9a3 3 0 0 0 2.2 1Zm7.7 1.4V50.1h2.2v15.5h-2.2Zm9.4.2a4 4 0 0 1-2.5-.7c-.7-.4-1.3-1-1.6-1.9a7 7 0 0 1-.6-3 7 7 0 0 1 .6-2.9 4.4 4.4 0 0 1 4-2.5c1 0 1.8.2 2.5.7a3.3 3.3 0 0 1 1.4 1.9h-.3l.2-2.4h2.1l-.1 1.3v9.3h-2.2v-2.4h.2c-.2.8-.7 1.5-1.4 2-.6.4-1.4.6-2.3.6Zm.5-1.7c.9 0 1.6-.3 2.2-1 .5-.6.8-1.5.8-2.8s-.3-2.2-.8-2.9a3 3 0 0 0-2.2-1c-1 0-1.7.4-2.2 1-.6.7-.9 1.6-.9 2.9 0 1.3.3 2.2.9 2.9.5.6 1.2 1 2.2 1Zm12.4 1.7c-1.2 0-2-.3-2.6-1-.6-.6-1-1.5-1-2.8v-5.4h-2V55h2v-2.8l2.2-.6V55h3v1.6h-3V62c0 .7.1 1.3.4 1.6.3.4.7.5 1.2.5h.7a4.4 4.4 0 0 0 .6-.2v1.7l-.7.2a4.1 4.1 0 0 1-.8 0Zm8.3 0c-1.7 0-3-.5-4-1.5s-1.5-2.3-1.5-4c0-1.1.2-2 .6-2.9.5-.8 1-1.5 1.8-2a6 6 0 0 1 5.2 0 4 4 0 0 1 1.5 1.8c.4.8.6 1.7.6 2.7v.7h-8v-1.2h6.5l-.3.2c0-1-.3-1.8-.8-2.4-.4-.6-1.1-.9-2-.9a3 3 0 0 0-2.3 1c-.5.7-.8 1.6-.8 2.8v.3c0 1.2.3 2.1 1 2.8.6.6 1.4 1 2.6 1 .6 0 1.1-.2 1.7-.3a4.8 4.8 0 0 0 1.5-1l.7 1.5c-.5.5-1 .8-1.8 1a7.3 7.3 0 0 1-2.2.4Z"/>
  <path fill="#F05D55" d="M161 91.7c-1 0-1.7-.2-2.3-.5a3.6 3.6 0 0 1-1.4-1.5 5 5 0 0 1 0-4.4 3.6 3.6 0 0 1 1.4-1.5c.6-.3 1.4-.5 2.3-.5a4.6 4.6 0 0 1 1.5.2l1.2.7-.6 1.4a3.7 3.7 0 0 0-1-.5 3.1 3.1 0 0 0-1-.2c-.8 0-1.4.2-1.8.7-.4.4-.6 1-.6 1.9 0 .8.2 1.5.6 2 .4.4 1 .6 1.7.6a3.1 3.1 0 0 0 1-.2c.4 0 .7-.3 1.1-.6l.6 1.4a3.4 3.4 0 0 1-1.2.7 4.6 4.6 0 0 1-1.5.3Zm6.1 0c-.6 0-1.1-.2-1.6-.4a2.7 2.7 0 0 1-1-1 3 3 0 0 1-.4-1.7c0-.6.1-1.1.4-1.6a2.6 2.6 0 0 1 1-1 3 3 0 0 1 1.6-.4 3 3 0 0 1 1.7.4c.4.2.8.6 1 1 .3.5.4 1 .4 1.6 0 .6-.1 1.2-.4 1.6a2.6 2.6 0 0 1-1 1.1c-.5.2-1 .4-1.6.4Zm0-1.3c.4 0 .8-.2 1-.5.2-.3.3-.7.3-1.3 0-.6 0-1-.3-1.3-.2-.3-.6-.4-1-.4-.3 0-.7.1-.9.4-.2.3-.3.7-.3 1.3 0 .6 0 1 .3 1.3.2.3.6.5 1 .5Zm4.2 1.1v-4.3a12.6 12.6 0 0 0 0-1.5h1.6l.1 1h-.1a2 2 0 0 1 2-1.1c.4 0 .7.1 1 .3.3.2.6.6.7 1h-.2c.2-.4.4-.7.8-1a2.3 2.3 0 0 1 1.3-.3c.6 0 1.1.2 1.4.6.4.4.5 1 .5 1.8v3.5h-1.7v-3.4c0-.4 0-.7-.2-.9-.1-.2-.4-.3-.6-.3a1 1 0 0 0-.9.4c-.2.3-.3.6-.3 1v3.2H175v-3.4c0-.4 0-.7-.2-.9-.1-.2-.3-.3-.6-.3a1 1 0 0 0-.8.4c-.2.3-.3.6-.3 1v3.2h-1.8Zm10.5 0v-5.8h1.7v5.8h-1.7Zm0-6.7V83h1.8v1.7h-1.9Zm3.2 6.7v-4.3a12.6 12.6 0 0 0-.1-1.5h1.6l.2 1h-.2l.8-.8c.4-.2.8-.3 1.3-.3.7 0 1.2.2 1.5.6.3.4.5 1 .5 1.8v3.5H189v-3.4c0-.4 0-.7-.2-.9a1 1 0 0 0-.7-.3c-.4 0-.7.2-1 .4-.2.2-.3.6-.3 1v3.2H185Zm9.8 2.6a5.9 5.9 0 0 1-1.5-.2 3.8 3.8 0 0 1-1.2-.4l.4-1.3.6.3.8.2.8.1c.5 0 .8-.1 1.1-.4.3-.2.4-.6.4-1v-1.2h.1c-.1.4-.4.6-.7.9a2.4 2.4 0 0 1-1.3.3c-.5 0-1-.1-1.4-.4a2.4 2.4 0 0 1-.8-1c-.3-.4-.4-1-.4-1.5 0-.6.1-1.1.4-1.5.2-.5.5-.8.8-1 .4-.3.9-.4 1.4-.4.5 0 .9.1 1.2.3.4.2.6.5.8.9h-.1l.1-1h1.7v.7a11.9 11.9 0 0 0-.1.7v4a3 3 0 0 1-.8 2.2c-.5.5-1.3.7-2.3.7Zm0-4c.4 0 .8-.1 1-.4.2-.3.4-.7.4-1.2s-.2-1-.4-1.2c-.2-.3-.6-.4-1-.4s-.7.1-1 .4c-.2.3-.3.7-.3 1.2s.1.9.3 1.2c.3.3.6.4 1 .4Zm10.8 1.6c-.7 0-1.3-.1-1.8-.3-.6-.1-1-.4-1.5-.6l.5-1.4a4.7 4.7 0 0 0 1.8.7 5.4 5.4 0 0 0 1 0c.6 0 1 0 1.2-.2.2-.1.3-.4.3-.6 0-.3 0-.4-.2-.6a2 2 0 0 0-.9-.3l-1.3-.3c-.8-.1-1.3-.4-1.7-.7a2 2 0 0 1-.5-1.5c0-.5.1-1 .4-1.4a2 2 0 0 1 1.1-.9c.5-.2 1.1-.3 1.8-.3.6 0 1.1 0 1.6.2s1 .4 1.2.7l-.5 1.3a3.2 3.2 0 0 0-1-.5 4 4 0 0 0-1.3-.2 2 2 0 0 0-1.2.3.8.8 0 0 0-.4.7c0 .2.1.4.3.5.1.2.4.3.8.4l1.4.2a4 4 0 0 1 1.6.8c.4.4.6.9.6 1.4 0 .6-.1 1-.4 1.4l-1.2.9c-.5.2-1 .3-1.7.3Zm7.3 0c-.7 0-1.2-.2-1.7-.4a2.7 2.7 0 0 1-1-1 3 3 0 0 1-.4-1.7c0-.6.1-1.1.4-1.6a2.6 2.6 0 0 1 1-1 3 3 0 0 1 1.7-.4 3 3 0 0 1 1.6.4c.5.2.8.6 1 1 .3.5.4 1 .4 1.6 0 .6-.1 1.2-.4 1.6a2.6 2.6 0 0 1-1 1.1c-.5.2-1 .4-1.6.4Zm0-1.3c.4 0 .7-.2 1-.5.2-.3.3-.7.3-1.3 0-.6-.1-1-.4-1.3-.2-.3-.5-.4-1-.4-.3 0-.6.1-.9.4-.2.3-.3.7-.3 1.3 0 .6 0 1 .3 1.3.3.3.6.5 1 .5Zm7 1.3c-.7 0-1.3-.2-1.7-.4a2.7 2.7 0 0 1-1-1 3 3 0 0 1-.4-1.7c0-.6 0-1.1.3-1.6a2.6 2.6 0 0 1 1-1c.5-.3 1-.4 1.7-.4s1.2.1 1.6.4c.5.2.8.6 1 1 .3.5.5 1 .5 1.6 0 .6-.2 1.2-.4 1.6a2.6 2.6 0 0 1-1 1.1c-.5.2-1 .4-1.7.4Zm0-1.3c.3 0 .6-.2.9-.5.2-.3.3-.7.3-1.3 0-.6-.1-1-.3-1.3-.3-.3-.6-.4-1-.4s-.7.1-1 .4c-.2.3-.3.7-.3 1.3 0 .6.1 1 .4 1.3.2.3.5.5 1 .5Zm4 1.1v-4.3a12.6 12.6 0 0 0 0-1.5h1.7v1c.1-.3.4-.6.8-.8.3-.2.7-.3 1.2-.3.7 0 1.2.2 1.5.6.4.4.5 1 .5 1.8v3.5H228v-3.4c0-.4 0-.7-.2-.9a1 1 0 0 0-.7-.3c-.4 0-.7.2-1 .4-.2.2-.3.6-.3 1v3.2H224Z"/>
  <path fill="#FFD188" d="m104.3 78.4-12 7a2.6 2.6 0 0 1-2.7 0L53.9 64.8a.9.9 0 0 1 0-1.5l12.3-7a2.1 2.1 0 0 1 2.1 0l36 20.5a.9.9 0 0 1 .4.8.9.9 0 0 1-.4.8Z"/>
  <path fill="url(#a)" d="m78.6 78.1 5.8-4.4-5.9-3.3-6 3.6 6.1 4.1Z"/>
  <path fill="#081A54" d="m107.6 74 1.8-1-1.3-1-.5 1m-39-47.7 1.9-1 .1 1.4-1.2.6"/>
  <path fill="#081A54" d="M109.8 47.4v24.9a1 1 0 0 1-.4.8 1 1 0 0 1-1 0L70.3 51.2a1.3 1.3 0 0 1-.7-1.1V25.6a1.3 1.3 0 0 1 2-1.2l37.3 21.3a2 2 0 0 1 1 1.7Z"/>
  <path fill="#1E3180" d="M108 48.3v24.8a1 1 0 0 1-.4.8 1 1 0 0 1-.9 0L68.5 52.1a1.3 1.3 0 0 1-.7-1.2V26.5a1.3 1.3 0 0 1 2-1.2L107 46.5a2 2 0 0 1 1 1.8Z"/>
  <path fill="#081A54" d="M102.9 64.2v2.7l-5.4-3M79.2 35.4v17.9l-8.8-5.2"/>
  <path fill="#68E1FD" d="M102.9 48.8v15.4a14.2 14.2 0 0 1-2.2 1.5l-7-4V43.5l9.2 5.3ZM70.6 30.1l8.6 5V45a46.8 46.8 0 0 1-1.2 7.5l-7.6-4.3c.4-2.5.2-5.1.2-7.7V30.1Zm20.6 12v18.2L81.9 55V36.7l9.3 5.3Z"/>
  <path fill="#081A54" d="m102.9 64.2-2.2-.4v1.9s1.7-.8 2.2-1.5Z"/>
  <path fill="#ACEF78" d="m102.5 39.6 12.3 7a.8.8 0 0 1 .4.7l-.2 4.1a.8.8 0 0 1-.3.6.8.8 0 0 1-.8 0l-12.1-6.8a.8.8 0 0 1-.4-.6v-4.3a.8.8 0 0 1 .4-.7.8.8 0 0 1 .7 0Z"/>
  <path fill="#ACEF78" d="M101.4 44.6v2.3l1.5-1.4"/>
  <path fill="#FFB93E" d="m63 33.1 4.3 2.5a.3.3 0 0 1 .1.2v11.8a.3.3 0 0 1-.4.2l-5-2.7a.3.3 0 0 1-.2-.3V33a.3.3 0 0 1 .4-.2l.9.5Z"/>
  <path fill="#FFB93E" d="m66.9 35.3 2.5 1.5-2.7 1.5"/>
  <path fill="#fff" d="M104.6 45.3c.7-.2 1-1.2.7-2.2-.3-1-1-1.6-1.7-1.4-.7.2-1 1.1-.8 2.1.3 1 1 1.7 1.8 1.5Zm8.8 2.4-7-4a.4.4 0 0 0-.5.5l.2.2 7 4a.4.4 0 0 0 .3-.7Zm0 1.6-7-4a.4.4 0 0 0-.5.4.4.4 0 0 0 .2.3l7 3.9a.4.4 0 0 0 .5-.4.4.4 0 0 0-.2-.2Z"/>
  <path fill="#F4C2AE" d="m82.8 50.3-.3.7-1-.5.3-.6 1 .4Z"/>
  <path fill="#F7734F" d="M81.2 49.8s-2 1.5-2.5 2.9.7 2.9.7 2.9"/>
  <path fill="#1E3180" d="m79 70.8-1-.5.4-1 .8.3"/>
  <path fill="#1E3180" d="M77.7 68H79c0 .5.1 1 .5 1.2.1.1.8.3 1 .2l.8-.2c.1.1.4.3-.2.8s-1.8.9-2 .8c-.1 0 .2-1-.2-1-.5.2-.3 1.4-.3 1.5a1.7 1.7 0 0 1-.5.2 4 4 0 0 1-.4-.2l.1-3.3Zm7.3 5.3-1-.5.4-1 .8.3"/>
  <path fill="#1E3180" d="m83.7 70.1 1.2.4c0 .7.2 1.2 1 1.4h.8a.5.5 0 0 1 .5.1c.2.2 0 .4-.2.6a4 4 0 0 1-2 .7c-.2 0 .2-1-.3-1-.5.2-.2 1.3-.3 1.4a1.7 1.7 0 0 1-.5.2 4 4 0 0 1-.4-.2c0-1.1 0-2.5.2-3.6Z"/>
  <path fill="#BF4225" d="M83 57.3s2 4.2 2.5 6.7c.5 2.6 0 6.8 0 6.8s-1.6.7-3 .2c0 0-.2-6.2-.4-6.8-.2-.6-1.7-3-1.8-5.4 0-2.4.5-3.8.5-3.8"/>
  <path fill="#BF4225" d="M79.9 54.4a53.5 53.5 0 0 0-1.3 6.5c-.4 3.5-1.4 7.8-1.3 8 0 0 .9 1 2.7.5l2.1-12.7"/>
  <path fill="#FFB93E" d="M83.5 54.4a6 6 0 0 0 0-2.6 8.1 8.1 0 0 0-1.4-1.2s-.7-.9-1.4-.4-1.5 3.8-1.3 5.1c.1 1.2 1.2 1.5 2.3 1.8l1.3.2.5-3Z"/>
  <path fill="#FFE4D7" d="M83.8 48s-.2 2.3-.6 2.4c-.4.2-1-.3-1.2-.7-.1-.3 0-.4.4-.4l.4-.1c.5-.2-.3-1.5 1-1.2Z"/>
  <path fill="#F7734F" d="M83.2 47a2.8 2.8 0 0 0-.6-.3 1.6 1.6 0 0 0-1.5.4 2.3 2.3 0 0 0-.7 1.4c0 .5 0 1 .5 1.4.5.4 1.3.7 1.7.1l.2-.3c.2-.4.4-.8.8-1.2a1 1 0 0 0 .1-1 1 1 0 0 0-.5-.5Z"/>
  <path fill="#FFE4D7" d="M87 52a.4.4 0 0 0-.4-.2c.2-.1 0-.3 0-.3-.3 0-.4 0-.5.3a3.3 3.3 0 0 0-.2.6 7 7 0 0 1-1 1c-.2 0 0 .3 0 .2h.1a.1.1 0 0 0 .1 0 .1.1 0 0 0 0 .1.1.1 0 0 0 .1 0 7.4 7.4 0 0 1-.2.3c-.1.1 0 .3.1.2l.4-.3-.1.1c-.1.2 0 .3.1.2l1-.9.4-.2c.2 0 .4-.2.5-.4a1.6 1.6 0 0 0-.3-.8Z"/>
  <path fill="#57548B" d="m85.4 52 .1.4 3.6-1.6-.2-.3-3.5 1.5Z"/>
  <path fill="#FFE4D7" d="M87.7 51.5s-.2 0-.3-.2h.1a1 1 0 0 0 .3-.4s0-.2-.1-.1a3.7 3.7 0 0 0-.8.4c-.3.2-.4.5-.5.7-.1.2.1.3.2.2v-.2a.1.1 0 0 0 .1 0v.1a.1.1 0 0 0 0 .1c0 .2-.2.4 0 .5l-.1.2a.1.1 0 0 0 0 .1.1.1 0 0 0 .1.2c.4-.2.9-.4 1.1-.7a1 1 0 0 0 0-.9Z"/>
  <path fill="#F7734F" d="M85.7 52.4 84 54v-.7a4.7 4.7 0 0 0-.4-1.2c-1.2.6-2 2-1.4 3.1.4.6 1 1.2 1.5 1.3 1.3.1 3.1-2.4 3.1-2.4 0-.6-1-1.6-1-1.6Z"/>
  <path fill="#57548B" d="M89 50.5h.6l-.5.3-.4.1.2-.4Z"/>
  <path fill="#F7734F" d="M81.4 47c0-1.6-2.7-1.8-3-.3a1.3 1.3 0 0 0 1.3 1.6 4 4 0 0 0 1.5-.4"/>
  <path fill="#fff" d="M65.2 40.3c.8-.3 1.2-1.4.8-2.4-.4-1-1.4-1.5-2.2-1.1-.9.3-1.2 1.4-.9 2.4.4 1 1.4 1.4 2.3 1.1Z"/>
  <path fill="#F7931E" d="M66.7 43.2 62.9 41a.4.4 0 0 0-.4.6l3.8 2.2a.4.4 0 0 0 .4-.6Zm0 1.5-3.8-2.1a.4.4 0 0 0-.4.6l3.8 2.2a.4.4 0 0 0 .4-.7Z"/>
  <path fill="url(#b)" d="m58.6 67.5 6-3.4-3.6-2.3-6 3.6c1.4 1 2.1 1.2 3.6 2.1Z"/>
  <path fill="#68E1FD" d="m63 57.7.4 7 3.2-1.7 1-7.9"/>
  <path fill="#fff" d="m63 57.7.4 7 3.2-1.7 1-7.9"/>
  <path fill="#68E1FD" d="m59.3 55.6.7 7.3 3.4 1.8-.4-7.4-3.7-1.7Z"/>
  <path fill="#68E1FD" d="m59.3 55.6 4.4-2.6 3.8 2.1-4.5 2.6-3.7-2.1Z"/>
  <path fill="#1E3180" d="m59.3 55.6 4.4-2.6 3.8 2.1-4.5 2.6-3.7-2.1Z"/>
  <path fill="#FFE2C0" d="m60.8 56.5.7-.9h.7l.3.4.7-.4.6.3.2.3h.6l.3.4-1.9 1.1-2.2-1.2Z"/>
  <path fill="#EABE92" d="m61.5 55.6.4.9.3-.9h-.7Zm1.2 1 .7-.4h.6l.4.5-.9-.1-.5.8-.3-.4-1-.2 1-.3Z"/>
  <path fill="#FFE2C0" d="m63.8 55.9-.4-.8.3-.5.5-.3.4-.6h.3l.8.2.5.3h.7l.2.7-.1.5-2.1 1.2-.9-.4-.2-.3Z"/>
  <path fill="#EABE92" d="m63.4 55.1.8-.4.4.9.4-.5.4.3.1.4-.7.6-.3-.4-.3.2-.5-.6-.3-.5Zm2.8-.9-.4 1.2.8-.6.3-.6h-.7Zm-1.6-.5.7.3a1.4 1.4 0 0 1 0 .4l-.3.6-.4-.3-.1-.2.3-.3-.2-.5Z"/>
  <defs>
    <linearGradient id="a" x1="78.1" x2="116.4" y1="59.8" y2="39.7" gradientUnits="userSpaceOnUse">
      <stop stop-color="#F7931E" stop-opacity="0"/>
      <stop offset="1" stop-color="#F15A24"/>
    </linearGradient>
    <linearGradient id="b" x1="76" x2="116.8" y1="68.8" y2="46.1" gradientUnits="userSpaceOnUse">
      <stop stop-color="#F7931E" stop-opacity="0"/>
      <stop offset="1" stop-color="#F15A24"/>
    </linearGradient>
  </defs>
</svg>
