<?xml version="1.0" encoding="UTF-8"?>
<svg xmlns="http://www.w3.org/2000/svg" xmlns:xlink="http://www.w3.org/1999/xlink" width="20px" height="20px" viewBox="0 0 20 20" version="1.1">
<g id="surface1">
<path style="fill:none;stroke-width:2;stroke-linecap:butt;stroke-linejoin:round;stroke:rgb(61.176471%,63.137255%,65.882353%);stroke-opacity:1;stroke-miterlimit:4;" d="M 6.45 12.8 L 17.35 12.8 L 12.3625 21.8875 L 1 21.8875 Z M 6.45 12.8 " transform="matrix(0.3125,0,0,0.3125,0,0)"/>
<path style="fill-rule:nonzero;fill:rgb(44.705882%,47.843137%,52.156863%);fill-opacity:1;stroke-width:2;stroke-linecap:butt;stroke-linejoin:round;stroke:rgb(61.176471%,63.137255%,65.882353%);stroke-opacity:1;stroke-miterlimit:4;" d="M 17.35 12.8 L 22.875 21.55 L 17.65 30.3625 L 12.3625 21.8875 Z M 17.35 12.8 " transform="matrix(0.3125,0,0,0.3125,0,0)"/>
<path style="fill-rule:nonzero;fill:rgb(44.705882%,47.843137%,52.156863%);fill-opacity:1;stroke-width:2;stroke-linecap:butt;stroke-linejoin:round;stroke:rgb(61.176471%,63.137255%,65.882353%);stroke-opacity:1;stroke-miterlimit:4;" d="M 37.8 14.6125 L 41.4875 21.225 L 29.4125 42.775 L 30.7125 45.475 L 26.4375 52.775 L 21.45 43.7 Z M 37.8 14.6125 " transform="matrix(0.3125,0,0,0.3125,0,0)"/>
<path style="fill:none;stroke-width:2;stroke-linecap:butt;stroke-linejoin:round;stroke:rgb(61.176471%,63.137255%,65.882353%);stroke-opacity:1;stroke-miterlimit:4;" d="M 45.975 13.7125 L 56.8875 13.7125 L 40.525 42.7875 L 29.1625 42.7875 Z M 45.975 13.7125 " transform="matrix(0.3125,0,0,0.3125,0,0)"/>
<path style="fill-rule:nonzero;fill:rgb(44.705882%,47.843137%,52.156863%);fill-opacity:1;stroke-width:2;stroke-linecap:butt;stroke-linejoin:round;stroke:rgb(61.176471%,63.137255%,65.882353%);stroke-opacity:1;stroke-miterlimit:4;" d="M 56.8875 13.7125 L 62.3375 22.8 L 45.525 51.875 L 40.525 42.7875 Z M 56.8875 13.7125 " transform="matrix(0.3125,0,0,0.3125,0,0)"/>
<path style="fill-rule:nonzero;fill:rgb(61.176471%,63.137255%,65.882353%);fill-opacity:1;stroke-width:2;stroke-linecap:butt;stroke-linejoin:round;stroke:rgb(61.176471%,63.137255%,65.882353%);stroke-opacity:1;stroke-miterlimit:4;" d="M 11.775 40.4875 L 1 21.8875 L 12.3625 21.8875 L 17.65 30.3625 Z M 11.775 40.4875 " transform="matrix(0.3125,0,0,0.3125,0,0)"/>
<path style="fill-rule:nonzero;fill:rgb(61.176471%,63.137255%,65.882353%);fill-opacity:1;stroke-width:2;stroke-linecap:butt;stroke-linejoin:round;stroke:rgb(61.176471%,63.137255%,65.882353%);stroke-opacity:1;stroke-miterlimit:4;" d="M 15.5375 52.775 L 26.4375 52.775 L 21.45 43.7 L 10.0875 43.7 Z M 15.5375 52.775 " transform="matrix(0.3125,0,0,0.3125,0,0)"/>
<path style="fill-rule:nonzero;fill:rgb(61.176471%,63.137255%,65.882353%);fill-opacity:1;stroke-width:2;stroke-linecap:butt;stroke-linejoin:round;stroke:rgb(61.176471%,63.137255%,65.882353%);stroke-opacity:1;stroke-miterlimit:4;" d="M 34.625 51.875 L 45.525 51.875 L 40.525 42.7875 L 29.1625 42.7875 Z M 34.625 51.875 " transform="matrix(0.3125,0,0,0.3125,0,0)"/>
<path style="fill:none;stroke-width:2;stroke-linecap:butt;stroke-linejoin:round;stroke:rgb(61.176471%,63.137255%,65.882353%);stroke-opacity:1;stroke-miterlimit:4;" d="M 26.9 14.6125 L 37.8 14.6125 L 21.45 43.7 L 10.0875 43.7 Z M 26.9 14.6125 " transform="matrix(0.3125,0,0,0.3125,0,0)"/>
</g>
</svg>
